<svg xmlns="http://www.w3.org/2000/svg" width="242.875" height="16.469" viewBox="0 0 242.875 16.469">
  <metadata><?xpacket begin="﻿" id="W5M0MpCehiHzreSzNTczkc9d"?>
<x:xmpmeta xmlns:x="adobe:ns:meta/" x:xmptk="Adobe XMP Core 5.6-c138 79.159824, 2016/09/14-01:09:01        ">
   <rdf:RDF xmlns:rdf="http://www.w3.org/1999/02/22-rdf-syntax-ns#">
      <rdf:Description rdf:about=""/>
   </rdf:RDF>
</x:xmpmeta>
                                                                                                    
                                                                                                    
                                                                                                    
                                                                                                    
                                                                                                    
                                                                                                    
                                                                                                    
                                                                                                    
                                                                                                    
                                                                                                    
                                                                                                    
                                                                                                    
                                                                                                    
                                                                                                    
                                                                                                    
                                                                                                    
                                                                                                    
                                                                                                    
                                                                                                    
                                                                                                    
                           
<?xpacket end="w"?></metadata>
<defs>
    <style>
      .cls-1 {
        fill: #fff;
        fill-rule: evenodd;
      }
    </style>
  </defs>
  <path id="Explore_the_clinical_data_copy" data-name="Explore the clinical data ›› copy" class="cls-1" d="M638.1,512.285h9.84v-2.532h-7.015v-2.718h6.092V504.5h-6.092v-2.626h6.923v-2.533H638.1v12.942Zm11.245,0h2.935l1.994-3.087,1.994,3.087h3.009l-3.489-5.084,3.342-4.826H656.2l-1.864,2.885-1.846-2.885h-3.01l3.342,4.882Zm11.614,2.959h2.806v-4.253a3.8,3.8,0,0,0,3.083,1.479c2.345,0,4.5-1.812,4.5-5.121v-0.037c0-3.309-2.2-5.121-4.5-5.121a3.634,3.634,0,0,0-3.083,1.608v-1.424H660.96v12.869Zm5.169-5.159a2.512,2.512,0,0,1-2.4-2.736v-0.037a2.429,2.429,0,1,1,4.819,0v0.037A2.515,2.515,0,0,1,666.129,510.085Zm7.423,2.2h2.806v-13.5h-2.806v13.5Zm10.3,0.222a5.2,5.2,0,0,0,5.372-5.158v-0.037a5.358,5.358,0,0,0-10.707.037v0.037A5.147,5.147,0,0,0,683.854,512.507Zm0.037-2.422a2.631,2.631,0,0,1-2.6-2.736v-0.037a2.537,2.537,0,0,1,2.566-2.7,2.631,2.631,0,0,1,2.6,2.736v0.037A2.537,2.537,0,0,1,683.891,510.085Zm7.368,2.2h2.806v-3.66c0-2.367,1.145-3.5,3.009-3.5h0.148v-2.939a3.056,3.056,0,0,0-3.157,2.181v-2h-2.806v9.91Zm12.13,0.222a4.944,4.944,0,0,0,4.043-1.849l-1.606-1.423a3.241,3.241,0,0,1-2.4,1.017,2.3,2.3,0,0,1-2.419-1.942h6.887c0.018-.258.037-0.517,0.037-0.739,0-2.81-1.514-5.38-4.819-5.38a4.93,4.93,0,0,0-4.892,5.158v0.037A4.953,4.953,0,0,0,703.389,512.507Zm-2.418-5.953a2.207,2.207,0,0,1,2.141-2.108,2.124,2.124,0,0,1,2.086,2.108h-4.227Zm17.928,5.9a4.135,4.135,0,0,0,2.215-.573v-2.256a2.85,2.85,0,0,1-1.385.351,0.813,0.813,0,0,1-.9-0.961v-4.234h2.326v-2.4h-2.326v-2.532h-2.806v2.532h-1.182v2.4h1.182v4.7C716.019,511.768,717.182,512.452,718.9,512.452Zm4.321-.167h2.806v-5.528a1.724,1.724,0,0,1,1.754-2.015c1.07,0,1.7.684,1.7,2.015v5.528h2.806V505.87c0-2.274-1.237-3.679-3.36-3.679a3.5,3.5,0,0,0-2.9,1.59v-4.992H723.22v13.5Zm16.192,0.222a4.945,4.945,0,0,0,4.043-1.849l-1.606-1.423a3.243,3.243,0,0,1-2.4,1.017,2.3,2.3,0,0,1-2.419-1.942h6.886c0.019-.258.037-0.517,0.037-0.739,0-2.81-1.514-5.38-4.818-5.38a4.93,4.93,0,0,0-4.892,5.158v0.037A4.952,4.952,0,0,0,739.412,512.507Zm-2.419-5.953a2.208,2.208,0,0,1,2.142-2.108,2.124,2.124,0,0,1,2.086,2.108h-4.228Zm19.258,5.953a4.98,4.98,0,0,0,4.043-1.812l-1.643-1.664a3.132,3.132,0,0,1-2.271,1.054,2.538,2.538,0,0,1-2.511-2.736v-0.037a2.53,2.53,0,0,1,2.4-2.7,2.888,2.888,0,0,1,2.252,1.09l1.717-1.848a4.859,4.859,0,0,0-3.95-1.664,5.084,5.084,0,0,0-5.188,5.158v0.037A5.056,5.056,0,0,0,756.251,512.507Zm6-.222h2.806v-13.5h-2.806v13.5Zm5.5-11h2.954v-2.5h-2.954v2.5Zm0.074,11h2.806v-9.91h-2.806v9.91Zm5.447,0h2.806v-5.528a1.724,1.724,0,0,1,1.754-2.015c1.07,0,1.7.684,1.7,2.015v5.528h2.806V505.87c0-2.274-1.237-3.679-3.36-3.679a3.5,3.5,0,0,0-2.9,1.59v-1.406h-2.806v9.91Zm11.558-11h2.954v-2.5h-2.954v2.5Zm0.074,11h2.806v-9.91h-2.806v9.91Zm10.117,0.222a4.979,4.979,0,0,0,4.043-1.812l-1.643-1.664a3.129,3.129,0,0,1-2.271,1.054,2.537,2.537,0,0,1-2.51-2.736v-0.037a2.53,2.53,0,0,1,2.4-2.7,2.89,2.89,0,0,1,2.252,1.09l1.717-1.848a4.86,4.86,0,0,0-3.951-1.664,5.084,5.084,0,0,0-5.188,5.158v0.037A5.056,5.056,0,0,0,795.024,512.507Zm8.679-.037a3.8,3.8,0,0,0,2.99-1.257v1.072h2.714v-5.75a4.319,4.319,0,0,0-1.071-3.161A4.561,4.561,0,0,0,805,502.265a8.715,8.715,0,0,0-3.84.8l0.7,2.144a7.27,7.27,0,0,1,2.733-.536c1.4,0,2.123.647,2.123,1.812v0.166a7.037,7.037,0,0,0-2.419-.406c-2.344,0-3.987,1-3.987,3.161v0.037C800.306,511.4,801.838,512.47,803.7,512.47Zm0.849-1.941a1.3,1.3,0,0,1-1.532-1.2V509.29c0-.887.738-1.368,1.938-1.368a4.345,4.345,0,0,1,1.791.37v0.5C806.749,509.808,805.863,510.529,804.552,510.529Zm7.4,1.756h2.806v-13.5h-2.806v13.5ZM827,512.47a3.634,3.634,0,0,0,3.083-1.608v1.423h2.806v-13.5h-2.806v4.881A3.8,3.8,0,0,0,827,502.191c-2.345,0-4.5,1.812-4.5,5.121v0.037C822.5,510.658,824.7,512.47,827,512.47Zm0.72-2.385a2.526,2.526,0,0,1-2.419-2.736v-0.037a2.429,2.429,0,1,1,4.819,0v0.037A2.513,2.513,0,0,1,827.724,510.085Zm10.487,2.385a3.8,3.8,0,0,0,2.991-1.257v1.072h2.714v-5.75a4.323,4.323,0,0,0-1.071-3.161,4.562,4.562,0,0,0-3.341-1.109,8.715,8.715,0,0,0-3.84.8l0.7,2.144a7.269,7.269,0,0,1,2.732-.536c1.4,0,2.123.647,2.123,1.812v0.166a7.026,7.026,0,0,0-2.418-.406c-2.345,0-3.988,1-3.988,3.161v0.037C834.814,511.4,836.347,512.47,838.211,512.47Zm0.849-1.941a1.3,1.3,0,0,1-1.532-1.2V509.29c0-.887.739-1.368,1.939-1.368a4.34,4.34,0,0,1,1.79.37v0.5C841.257,509.808,840.371,510.529,839.06,510.529Zm10.525,1.923a4.13,4.13,0,0,0,2.215-.573v-2.256a2.846,2.846,0,0,1-1.384.351,0.814,0.814,0,0,1-.905-0.961v-4.234h2.326v-2.4h-2.326v-2.532h-2.806v2.532h-1.181v2.4h1.181v4.7C846.705,511.768,847.868,512.452,849.585,512.452Zm7.127,0.018a3.8,3.8,0,0,0,2.991-1.257v1.072h2.714v-5.75a4.323,4.323,0,0,0-1.071-3.161,4.561,4.561,0,0,0-3.341-1.109,8.715,8.715,0,0,0-3.84.8l0.7,2.144a7.269,7.269,0,0,1,2.732-.536c1.4,0,2.123.647,2.123,1.812v0.166a7.026,7.026,0,0,0-2.418-.406c-2.345,0-3.988,1-3.988,3.161v0.037C853.315,511.4,854.848,512.47,856.712,512.47Zm0.849-1.941a1.3,1.3,0,0,1-1.532-1.2V509.29c0-.887.739-1.368,1.939-1.368a4.34,4.34,0,0,1,1.79.37v0.5C859.758,509.808,858.872,510.529,857.561,510.529Zm14.482-7.7H869.5l3.621,4.723-3.621,4.73h2.544l3.621-4.73Zm5.29,0h-2.544l3.62,4.723-3.62,4.73h2.544l3.62-4.73Z" transform="translate(-638.094 -498.781)"/>
</svg>
