<svg id="Layer_1" data-name="Layer 1" xmlns="http://www.w3.org/2000/svg" viewBox="0 0 324 122.5"><defs><style>.cls-1{fill:#fff;}</style></defs><title>logo</title><path class="cls-1" d="M114.36,53.57a6.21,6.21,0,0,1,5.92,4H124A10,10,0,1,0,124,63h-3.73a6.28,6.28,0,0,1-5.92,3.83,6.4,6.4,0,0,1-6.48-6.65,6.89,6.89,0,0,1,1.85-4.81A6.12,6.12,0,0,1,114.36,53.57Z"/><path class="cls-1" d="M138.36,50.19a9.84,9.84,0,0,0-10.1,10v0a10.11,10.11,0,1,0,10.1-10Zm0,16.65a6.43,6.43,0,0,1-6.48-6.59v0a6.48,6.48,0,1,1,6.48,6.62Z"/><rect class="cls-1" x="153.81" y="43.92" width="3.62" height="25.79"/><path class="cls-1" d="M172.74,50.19a9.84,9.84,0,0,0-10.11,10v0a10.11,10.11,0,1,0,10.11-10Zm0,16.65a6.43,6.43,0,0,1-6.48-6.59v0a6.48,6.48,0,1,1,6.48,6.62Z"/><path class="cls-1" d="M204,54a7.59,7.59,0,0,0-6.83-3.76c-5.51,0-9.79,4.18-9.79,10.1a9.63,9.63,0,0,0,9.79,10,7.42,7.42,0,0,0,6.83-3.9v2a6.37,6.37,0,0,1-6.45,6.58,6.15,6.15,0,0,1-3.27-1,5.69,5.69,0,0,1-2.09-2.19H188c.9,3.17,4,6.31,9.41,6.31a10.67,10.67,0,0,0,8-3.45c1.39-1.6,2.23-3.73,2.23-7V50.75H204Zm-1.78,11A6.58,6.58,0,0,1,191,60.23v0a6.42,6.42,0,0,1,6.55-6.59,6.06,6.06,0,0,1,5,2.23A7.3,7.3,0,0,1,204,60.33,6.81,6.81,0,0,1,202.19,65Z"/><path class="cls-1" d="M227.72,61.34c0,3.24-1.64,5.5-5.19,5.54-3.73,0-5.05-2.44-5.05-5.85V50.75h-3.62V61.86c0,3.94,1.57,8.36,7.67,8.4,3.38,0,5.5-1.53,6.41-3.48v2.93h3.42v-19h-3.62Z"/><path class="cls-1" d="M253.34,54.09a7.65,7.65,0,0,0-7-3.9,9.65,9.65,0,0,0-9.72,10c0,5.3,3.62,10,9.72,10a7.65,7.65,0,0,0,7-3.87v3.31H257v-19h-3.62Zm-.63,9a6.2,6.2,0,0,1-5.89,3.76,6.51,6.51,0,0,1-6.62-6.58v0a6.48,6.48,0,0,1,6.55-6.69,6.33,6.33,0,0,1,6.07,3.9,6,6,0,0,1,.56,2.82A7.09,7.09,0,0,1,252.71,63.12Z"/><path class="cls-1" d="M267.59,53.54V50.75h-3.41v19h3.62V59.46c0-3.76,1.78-5.65,5.19-5.65h.24V50.19A5.92,5.92,0,0,0,267.59,53.54Z"/><path class="cls-1" d="M293.08,43.92v9.93a7.8,7.8,0,0,0-7-3.66c-5.4,0-9.65,4.11-9.65,10,0,5.47,3.76,10.07,9.72,10.07,3.9,0,6-1.91,7.07-3.87v3.31h3.48V43.92Zm-1.64,21a6.63,6.63,0,0,1-4.74,2A6.48,6.48,0,0,1,280,60.23v0a6.62,6.62,0,1,1,13.24-.07A6.32,6.32,0,0,1,291.44,64.9Z"/><path class="cls-1" d="M33.26,85.72H47.57V76.79H37.62V42H56.51V33H33.26a4.58,4.58,0,0,0-4.58,4.58V81.15A4.58,4.58,0,0,0,33.26,85.72Z"/><path class="cls-1" d="M88.58,33H65.44V42H84.22V76.79H65.44V71.26H56.51v21.1h8.94V85.72H88.58a4.58,4.58,0,0,0,4.58-4.58V37.61A4.58,4.58,0,0,0,88.58,33Z"/><path class="cls-1" d="M307.76,47.91a4.07,4.07,0,1,1-4-4A4,4,0,0,1,307.76,47.91Zm-7.12,0a3.08,3.08,0,0,0,3.09,3.16,3,3,0,0,0,3-3.14,3.05,3.05,0,1,0-6.11,0ZM303.08,50h-.92V46a10.72,10.72,0,0,1,1.52-.12,2.1,2.1,0,0,1,1.35.31,1,1,0,0,1,.41.84,1,1,0,0,1-.82.94v0c.39.12.58.43.7,1a3.56,3.56,0,0,0,.29,1h-1a3.13,3.13,0,0,1-.31-1c-.07-.41-.31-.6-.82-.6h-.43Zm0-2.22h.43c.51,0,.92-.17.92-.58s-.27-.6-.84-.6a2.21,2.21,0,0,0-.51,0Z"/><path class="cls-1" d="M238.76,80.81h4.95a4.47,4.47,0,0,1,3.2,1.11,3.36,3.36,0,0,1,.92,2.39v0a3.33,3.33,0,0,1-2.65,3.36l3,4.2h-2.3L243.15,88h-2.44v3.87h-2Zm4.8,5.5c1.4,0,2.28-.73,2.28-1.85v0c0-1.19-.86-1.84-2.3-1.84h-2.84v3.73Z"/><path class="cls-1" d="M252.34,87.66l-3-4.12h2.09l1.93,2.76,1.93-2.76h2l-3,4.07,3.09,4.3h-2.09L253.36,89l-2,2.93h-2Z"/><path class="cls-1" d="M263.49,87.77v0a4.46,4.46,0,0,1,8.93,0v0a4.38,4.38,0,0,1-4.49,4.36A4.33,4.33,0,0,1,263.49,87.77Zm7,0v0a2.59,2.59,0,0,0-2.57-2.7,2.51,2.51,0,0,0-2.52,2.66v0A2.59,2.59,0,0,0,268,90.43,2.52,2.52,0,0,0,270.5,87.77Z"/><path class="cls-1" d="M274.37,83.54h1.92v1.3a3,3,0,0,1,2.62-1.47c1.89,0,3,1.27,3,3.22v5.33H280V87.15c0-1.3-.65-2-1.79-2a1.86,1.86,0,0,0-1.89,2.08v4.72h-1.92Z"/><path class="cls-1" d="M284.31,80.33h1.92V91.91h-1.92Z"/><path class="cls-1" d="M288.47,94l.65-1.43a2.36,2.36,0,0,0,1.13.32c.54,0,.87-.24,1.19-1l-3.49-8.37h2l2.38,6.21,2.17-6.21h2l-3.33,8.61c-.67,1.71-1.41,2.35-2.76,2.35A3.9,3.9,0,0,1,288.47,94Z"/></svg>