<svg xmlns="http://www.w3.org/2000/svg" width="198.062" height="86" viewBox="0 0 198.062 86">
  <metadata><?xpacket begin="﻿" id="W5M0MpCehiHzreSzNTczkc9d"?>
<x:xmpmeta xmlns:x="adobe:ns:meta/" x:xmptk="Adobe XMP Core 5.6-c138 79.159824, 2016/09/14-01:09:01        ">
   <rdf:RDF xmlns:rdf="http://www.w3.org/1999/02/22-rdf-syntax-ns#">
      <rdf:Description rdf:about=""/>
   </rdf:RDF>
</x:xmpmeta>
                                                                                                    
                                                                                                    
                                                                                                    
                                                                                                    
                                                                                                    
                                                                                                    
                                                                                                    
                                                                                                    
                                                                                                    
                                                                                                    
                                                                                                    
                                                                                                    
                                                                                                    
                                                                                                    
                                                                                                    
                                                                                                    
                                                                                                    
                                                                                                    
                                                                                                    
                                                                                                    
                           
<?xpacket end="w"?></metadata>
<defs>
    <style>
      .cls-1 {
        fill: #fff;
        fill-rule: evenodd;
      }
    </style>
  </defs>
  <path id="COLORECTAL_CANCER_SCREENING_copy" data-name="COLORECTAL CANCER SCREENING copy" class="cls-1" d="M671.367,237.1a10.106,10.106,0,0,0,8.107-3.532l-2.768-2.8a7.14,7.14,0,0,1-5.2,2.316c-3.39,0-5.735-2.825-5.735-6.215v-0.056a5.859,5.859,0,0,1,5.735-6.158,7.3,7.3,0,0,1,5.056,2.231l2.769-3.192a10.2,10.2,0,0,0-7.8-3.051,10.051,10.051,0,0,0-10.311,10.226v0.057A9.982,9.982,0,0,0,671.367,237.1Zm20.624,0a10.226,10.226,0,0,0,10.536-10.227v-0.056a10.513,10.513,0,0,0-21.017.056v0.057A10.132,10.132,0,0,0,691.991,237.1Zm0.056-4.012a6.007,6.007,0,0,1-5.988-6.215v-0.056a5.913,5.913,0,0,1,5.932-6.158,6.007,6.007,0,0,1,5.988,6.214v0.057A5.913,5.913,0,0,1,692.047,233.092Zm14.353,3.673h14.209V232.81h-9.858V216.99H706.4v19.775Zm25.963,0.339A10.226,10.226,0,0,0,742.9,226.877v-0.056a10.513,10.513,0,0,0-21.017.056v0.057A10.132,10.132,0,0,0,732.363,237.1Zm0.056-4.012a6.008,6.008,0,0,1-5.989-6.215v-0.056a5.914,5.914,0,0,1,5.933-6.158,6.007,6.007,0,0,1,5.988,6.214v0.057A5.913,5.913,0,0,1,732.419,233.092Zm14.353,3.673h4.35v-6.328h3.418l4.238,6.328h5.084l-4.83-7.063a6.141,6.141,0,0,0,4.237-6.13v-0.056a6.206,6.206,0,0,0-1.7-4.52,7.88,7.88,0,0,0-5.762-2.006h-9.04v19.775Zm4.35-10.17v-5.678h4.322c2.119,0,3.418.96,3.418,2.825V223.8c0,1.667-1.214,2.8-3.333,2.8h-4.407Zm16.076,10.17h15.057v-3.871H771.52v-4.152h9.322v-3.87H771.52v-4.011h10.593V216.99H767.2v19.775Zm28.194,0.339a10.106,10.106,0,0,0,8.108-3.532l-2.769-2.8a7.136,7.136,0,0,1-5.2,2.316c-3.39,0-5.735-2.825-5.735-6.215v-0.056a5.858,5.858,0,0,1,5.735-6.158,7.3,7.3,0,0,1,5.056,2.231l2.769-3.192a10.2,10.2,0,0,0-7.8-3.051,10.05,10.05,0,0,0-10.311,10.226v0.057A9.982,9.982,0,0,0,795.392,237.1Zm16.189-.339h4.35V221h6.017V216.99H805.564V221h6.017v15.763Zm9.465,0h4.435l1.808-4.436h8.362l1.808,4.436h4.548l-8.475-19.916h-4.011Zm7.8-8.277,2.627-6.413,2.627,6.413h-5.254Zm16.217,8.277h14.209V232.81h-9.858V216.99H845.06v19.775ZM707.9,269.882A10.108,10.108,0,0,0,716,266.351l-2.768-2.8a7.137,7.137,0,0,1-5.2,2.317c-3.39,0-5.734-2.825-5.734-6.215V259.6a5.859,5.859,0,0,1,5.734-6.159,7.3,7.3,0,0,1,5.057,2.232l2.768-3.192a10.2,10.2,0,0,0-7.8-3.051,10.05,10.05,0,0,0-10.31,10.226v0.057A9.981,9.981,0,0,0,707.9,269.882Zm9.889-.339h4.435l1.808-4.435h8.362l1.808,4.435h4.548l-8.475-19.915h-4.011Zm7.8-8.277,2.627-6.412,2.627,6.412h-5.254Zm16.217,8.277h4.294V256.972l9.576,12.571h3.7V249.769h-4.294v12.175l-9.266-12.175H741.8v19.774Zm31.585,0.339a10.108,10.108,0,0,0,8.107-3.531l-2.769-2.8a7.133,7.133,0,0,1-5.2,2.317c-3.39,0-5.735-2.825-5.735-6.215V259.6a5.859,5.859,0,0,1,5.735-6.159,7.3,7.3,0,0,1,5.056,2.232l2.769-3.192a10.2,10.2,0,0,0-7.8-3.051,10.051,10.051,0,0,0-10.311,10.226v0.057A9.982,9.982,0,0,0,773.385,269.882Zm11.584-.339h15.056v-3.87H789.291V261.52h9.322v-3.87h-9.322v-4.011h10.593v-3.87H784.969v19.774Zm18.929,0h4.35v-6.328h3.418l4.237,6.328h5.085l-4.831-7.062a6.14,6.14,0,0,0,4.238-6.13v-0.057a6.2,6.2,0,0,0-1.695-4.519,7.88,7.88,0,0,0-5.763-2.006H803.9v19.774Zm4.35-10.169V253.7h4.322c2.119,0,3.418.96,3.418,2.824v0.057c0,1.667-1.215,2.8-3.333,2.8h-4.407ZM681.764,302.6c4.265,0,7.26-2.2,7.26-6.13v-0.056c0-3.447-2.26-4.887-6.271-5.933-3.418-.875-4.266-1.3-4.266-2.6V287.83c0-.96.876-1.723,2.542-1.723a9.279,9.279,0,0,1,5.142,1.949l2.26-3.277a11.45,11.45,0,0,0-7.345-2.514c-4.04,0-6.921,2.373-6.921,5.96v0.057c0,3.927,2.571,5.028,6.554,6.045,3.3,0.848,3.983,1.413,3.983,2.514V296.9c0,1.158-1.074,1.864-2.853,1.864a9.069,9.069,0,0,1-5.9-2.4l-2.571,3.079A12.583,12.583,0,0,0,681.764,302.6Zm20.313,0.057a10.106,10.106,0,0,0,8.107-3.532l-2.768-2.8a7.14,7.14,0,0,1-5.2,2.316c-3.39,0-5.734-2.825-5.734-6.214v-0.057a5.858,5.858,0,0,1,5.734-6.158,7.3,7.3,0,0,1,5.057,2.231l2.768-3.192a10.2,10.2,0,0,0-7.8-3.05,10.049,10.049,0,0,0-10.31,10.226v0.056A9.982,9.982,0,0,0,702.077,302.661Zm11.584-.339h4.35v-6.328h3.418l4.238,6.328h5.085l-4.831-7.063a6.14,6.14,0,0,0,4.237-6.13v-0.056a6.207,6.207,0,0,0-1.7-4.52,7.879,7.879,0,0,0-5.762-2h-9.04v19.774Zm4.35-10.17v-5.678h4.322c2.119,0,3.419.961,3.419,2.825v0.056c0,1.667-1.215,2.8-3.334,2.8h-4.407Zm16.076,10.17h15.057v-3.871H738.409V294.3h9.322v-3.87h-9.322v-4.011H749v-3.87H734.087v19.774Zm18.929,0h15.056v-3.871H757.338V294.3h9.322v-3.87h-9.322v-4.011h10.593v-3.87H753.016v19.774Zm18.929,0h4.294V289.751l9.576,12.571h3.7V282.548h-4.293v12.175l-9.266-12.175h-4.011v19.774Zm22.516,0h4.351V282.548h-4.351v19.774Zm9.295,0h4.294V289.751l9.576,12.571h3.7V282.548h-4.294v12.175l-9.265-12.175h-4.012v19.774Zm31.839,0.339a12.833,12.833,0,0,0,8.446-3.136v-8.588h-8.587v3.757h4.378v2.825a6.94,6.94,0,0,1-4.1,1.187,5.925,5.925,0,0,1-5.988-6.271v-0.057a5.939,5.939,0,0,1,5.678-6.158,7.28,7.28,0,0,1,5.169,2l2.74-3.305a10.858,10.858,0,0,0-7.768-2.711A10.149,10.149,0,0,0,825.2,292.435v0.056C825.2,298.338,829.437,302.661,835.6,302.661Z" transform="translate(-661.219 -216.656)"/>
</svg>
