<svg xmlns="http://www.w3.org/2000/svg" width="186.594" height="79.593" viewBox="0 0 186.594 79.593">
  <metadata><?xpacket begin="﻿" id="W5M0MpCehiHzreSzNTczkc9d"?>
<x:xmpmeta xmlns:x="adobe:ns:meta/" x:xmptk="Adobe XMP Core 5.6-c138 79.159824, 2016/09/14-01:09:01        ">
   <rdf:RDF xmlns:rdf="http://www.w3.org/1999/02/22-rdf-syntax-ns#">
      <rdf:Description rdf:about=""/>
   </rdf:RDF>
</x:xmpmeta>
                                                                                                    
                                                                                                    
                                                                                                    
                                                                                                    
                                                                                                    
                                                                                                    
                                                                                                    
                                                                                                    
                                                                                                    
                                                                                                    
                                                                                                    
                                                                                                    
                                                                                                    
                                                                                                    
                                                                                                    
                                                                                                    
                                                                                                    
                                                                                                    
                                                                                                    
                                                                                                    
                           
<?xpacket end="w"?></metadata>
<defs>
    <style>
      .cls-1 {
        fill: #d1af22;
        fill-rule: evenodd;
      }
    </style>
  </defs>
  <path id="_92_sensitivity_" data-name="92% sensitivity*" class="cls-1" d="M379.919,924.5c12.2,0,18.755-9.482,18.755-23.369v-0.123c0-8.442-2.023-13.091-5.087-16.15-3.249-3.243-6.62-4.65-12.381-4.65-9.684,0-16.364,6.363-16.364,14.989v0.122c0,8.687,6.006,13.826,15.322,13.826a13.059,13.059,0,0,0,8.7-2.936c-0.613,5.75-3.432,9.727-8.7,9.727-3.616,0-6.251-1.163-9.377-3.671l-4.965,7.158A20.75,20.75,0,0,0,379.919,924.5Zm1.777-23.186c-4.658,0-7.477-2.63-7.477-6.423v-0.123c0-3.793,2.636-6.484,7.294-6.484,4.719,0,7.538,2.753,7.538,6.546v0.122C389.051,898.624,386.354,901.315,381.7,901.315Zm22.679,22.452h31.748v-8.136H417.43l6.987-5.384c7.6-5.873,11.277-9.421,11.277-16.579v-0.122c0-8.014-5.884-13.214-14.771-13.214-7.661,0-11.767,3.12-16,8.87l6.619,5.323c3.187-3.916,5.455-5.751,8.764-5.751,3.371,0,5.762,1.958,5.762,5.567,0,3.548-2.084,5.873-7.416,10.278L404.375,916.3v7.463Zm48.3-21.412c6.252,0,10.481-4.955,10.481-10.95v-0.123c0-6-4.168-10.828-10.358-10.828-6.252,0-10.48,4.894-10.48,10.951v0.122C442.315,897.522,446.482,902.355,452.672,902.355Zm-6.067,21.412H453.9l31.319-42.824h-7.293Zm32.422,0.49c6.252,0,10.48-4.956,10.48-10.951v-0.122c0-6-4.167-10.829-10.357-10.829-6.252,0-10.481,4.895-10.481,10.951v0.122C468.669,919.424,472.837,924.257,479.027,924.257ZM452.8,896.788c-2.452,0-4.045-2.508-4.045-5.383v-0.123c0-2.814,1.348-5.261,3.922-5.261,2.452,0,4.046,2.508,4.046,5.384v0.122C456.718,894.28,455.369,896.788,452.8,896.788Zm26.355,21.9c-2.452,0-4.046-2.509-4.046-5.384v-0.122c0-2.814,1.349-5.262,3.923-5.262,2.452,0,4.045,2.509,4.045,5.384v0.122C483.072,916.181,481.724,918.69,479.15,918.69ZM339.576,959.808c4.11,0,7-2.12,7-5.9v-0.055c0-3.314-2.178-4.7-6.043-5.7-3.294-.843-4.11-1.25-4.11-2.5V945.6c0-.924.844-1.658,2.45-1.658a8.957,8.957,0,0,1,4.954,1.875L346,942.663a11.045,11.045,0,0,0-7.077-2.418c-3.893,0-6.669,2.282-6.669,5.733v0.054c0,3.777,2.477,4.837,6.315,5.815,3.185,0.815,3.838,1.358,3.838,2.418v0.054c0,1.114-1.034,1.793-2.749,1.793a8.748,8.748,0,0,1-5.689-2.309l-2.477,2.962A12.14,12.14,0,0,0,339.576,959.808Zm10.65-.272h14.508v-3.722H354.39V951.82h8.983V948.1H354.39v-3.858H364.6v-3.722H350.226v19.019Zm18.244,0h4.137V947.445l9.228,12.091H385.4V940.517h-4.138v11.71l-8.928-11.71H368.47v19.019Zm28.289,0.272c4.11,0,7-2.12,7-5.9v-0.055c0-3.314-2.178-4.7-6.043-5.7-3.294-.843-4.11-1.25-4.11-2.5V945.6c0-.924.843-1.658,2.449-1.658a8.952,8.952,0,0,1,4.954,1.875l2.178-3.152a11.047,11.047,0,0,0-7.077-2.418c-3.893,0-6.669,2.282-6.669,5.733v0.054c0,3.777,2.477,4.837,6.315,5.815,3.185,0.815,3.838,1.358,3.838,2.418v0.054c0,1.114-1.034,1.793-2.749,1.793a8.748,8.748,0,0,1-5.689-2.309l-2.477,2.962A12.14,12.14,0,0,0,396.759,959.808Zm10.84-.272h4.192V940.517H407.6v19.019Zm13.4,0h4.192V944.375h5.8v-3.858H415.2v3.858H421v15.161Zm13.4,0h4.192V940.517h-4.192v19.019Zm15.029,0.136h3.7l7.7-19.155h-4.518l-4.981,13.395-4.982-13.395h-4.627Zm14.543-.136h4.192V940.517h-4.192v19.019Zm13.4,0h4.192V944.375h5.8v-3.858H471.563v3.858h5.8v15.161Zm18.57,0h4.192v-7.581l7.322-11.438h-4.763l-4.628,7.635-4.545-7.635h-4.9l7.322,11.52v7.5Zm16.584-10.107h2.232l-0.435-3.261,2.64,2.011,1.143-1.956-3.049-1.277,3.049-1.277-1.143-1.957-2.64,2.011,0.435-3.26h-2.232l0.436,3.26-2.641-2.011-1.143,1.957,3.049,1.277-3.049,1.277,1.143,1.956,2.641-2.011Z" transform="translate(-331.5 -880.219)"/>
</svg>
