<svg xmlns="http://www.w3.org/2000/svg" width="187.843" height="14.687" viewBox="0 0 187.843 14.687">
  <metadata><?xpacket begin="﻿" id="W5M0MpCehiHzreSzNTczkc9d"?>
<x:xmpmeta xmlns:x="adobe:ns:meta/" x:xmptk="Adobe XMP Core 5.6-c138 79.159824, 2016/09/14-01:09:01        ">
   <rdf:RDF xmlns:rdf="http://www.w3.org/1999/02/22-rdf-syntax-ns#">
      <rdf:Description rdf:about=""/>
   </rdf:RDF>
</x:xmpmeta>
                                                                                                    
                                                                                                    
                                                                                                    
                                                                                                    
                                                                                                    
                                                                                                    
                                                                                                    
                                                                                                    
                                                                                                    
                                                                                                    
                                                                                                    
                                                                                                    
                                                                                                    
                                                                                                    
                                                                                                    
                                                                                                    
                                                                                                    
                                                                                                    
                                                                                                    
                                                                                                    
                           
<?xpacket end="w"?></metadata>
<defs>
    <style>
      .cls-1 {
        fill: #d1af22;
        fill-rule: evenodd;
      }
    </style>
  </defs>
  <path id="_92_sensitivity_copy" data-name="92% sensitivity* copy" class="cls-1" d="M667.179,430.615c4.032,0,6.2-3.141,6.2-7.74v-0.041c0-2.8-.668-4.336-1.681-5.349a5.136,5.136,0,0,0-4.093-1.54c-3.2,0-5.41,2.107-5.41,4.964v0.041c0,2.877,1.985,4.579,5.065,4.579a4.315,4.315,0,0,0,2.877-.972c-0.2,1.9-1.134,3.221-2.877,3.221a4.59,4.59,0,0,1-3.1-1.216l-1.641,2.371A6.849,6.849,0,0,0,667.179,430.615Zm0.588-7.679a2.172,2.172,0,0,1-2.472-2.128v-0.04a2.132,2.132,0,0,1,2.411-2.148,2.206,2.206,0,0,1,2.492,2.168v0.04A2.143,2.143,0,0,1,667.767,422.936Zm7.5,7.436h10.5v-2.695h-6.18l2.31-1.783c2.512-1.945,3.728-3.12,3.728-5.491v-0.041c0-2.654-1.945-4.376-4.883-4.376-2.533,0-3.89,1.033-5.288,2.938l2.188,1.763c1.054-1.3,1.8-1.905,2.9-1.905a1.74,1.74,0,0,1,1.905,1.844c0,1.175-.689,1.945-2.452,3.4l-4.721,3.87v2.472Zm15.97-7.092a3.463,3.463,0,0,0,3.465-3.627v-0.04a3.409,3.409,0,0,0-3.424-3.587,3.452,3.452,0,0,0-3.465,3.627v0.041A3.409,3.409,0,0,0,691.237,423.28Zm-2.006,7.092h2.411L702,416.188h-2.411Zm10.719,0.162a3.463,3.463,0,0,0,3.464-3.627v-0.041a3.409,3.409,0,0,0-3.424-3.586,3.452,3.452,0,0,0-3.465,3.627v0.04A3.41,3.41,0,0,0,699.95,430.534Zm-8.672-9.1a1.578,1.578,0,0,1-1.338-1.783v-0.04a1.5,1.5,0,0,1,1.3-1.743,1.578,1.578,0,0,1,1.337,1.783v0.041A1.506,1.506,0,0,1,691.278,421.436Zm8.712,7.254a1.578,1.578,0,0,1-1.337-1.783v-0.041a1.5,1.5,0,0,1,1.3-1.742,1.578,1.578,0,0,1,1.337,1.783v0.04A1.507,1.507,0,0,1,699.99,428.69Zm17.168,1.884c3.06,0,5.208-1.58,5.208-4.4v-0.041c0-2.472-1.621-3.5-4.5-4.255-2.451-.628-3.059-0.932-3.059-1.864v-0.041c0-.689.628-1.236,1.823-1.236a6.656,6.656,0,0,1,3.688,1.4l1.621-2.35a8.21,8.21,0,0,0-5.268-1.8c-2.9,0-4.964,1.7-4.964,4.275V420.3c0,2.816,1.844,3.606,4.7,4.336,2.37,0.607,2.856,1.013,2.856,1.8v0.04c0,0.831-.769,1.338-2.046,1.338a6.507,6.507,0,0,1-4.235-1.723l-1.844,2.209A9.023,9.023,0,0,0,717.158,430.574Zm7.926-.2h10.8V427.6h-7.7v-2.979h6.687v-2.776h-6.687v-2.877h7.6v-2.776h-10.7v14.184Zm13.58,0h3.079v-9.017l6.869,9.017h2.655V416.188h-3.08v8.733l-6.646-8.733h-2.877v14.184Zm21.056,0.2c3.06,0,5.208-1.58,5.208-4.4v-0.041c0-2.472-1.621-3.5-4.5-4.255-2.451-.628-3.059-0.932-3.059-1.864v-0.041c0-.689.628-1.236,1.823-1.236a6.656,6.656,0,0,1,3.688,1.4l1.621-2.35a8.21,8.21,0,0,0-5.268-1.8c-2.9,0-4.964,1.7-4.964,4.275V420.3c0,2.816,1.844,3.606,4.7,4.336,2.37,0.607,2.857,1.013,2.857,1.8v0.04c0,0.831-.77,1.338-2.047,1.338a6.507,6.507,0,0,1-4.235-1.723l-1.844,2.209A9.025,9.025,0,0,0,759.72,430.574Zm8.068-.2h3.121V416.188h-3.121v14.184Zm9.971,0h3.12V419.066H785.2v-2.878H773.443v2.878h4.316v11.306Zm9.973,0h3.12V416.188h-3.12v14.184Zm11.186,0.1h2.756l5.734-14.285h-3.364l-3.708,9.99-3.708-9.99h-3.444Zm10.824-.1h3.121V416.188h-3.121v14.184Zm9.971,0h3.12V419.066h4.316v-2.878H815.4v2.878h4.316v11.306Zm13.822,0h3.121v-5.653l5.45-8.531H838.56l-3.444,5.694-3.384-5.694h-3.647l5.45,8.591v5.593Zm12.344-7.538h1.661l-0.324-2.431,1.965,1.5,0.851-1.459-2.269-.952,2.269-.952-0.851-1.459-1.965,1.5,0.324-2.431h-1.661l0.324,2.431-1.965-1.5-0.851,1.459,2.269,0.952-2.269.952,0.851,1.459,1.965-1.5Z" transform="translate(-662.188 -415.938)"/>
</svg>
