<?xml version="1.0" standalone="no"?>
<!DOCTYPE svg PUBLIC "-//W3C//DTD SVG 1.1//EN" "http://www.w3.org/Graphics/SVG/1.1/DTD/svg11.dtd" >
<svg xmlns="http://www.w3.org/2000/svg">
<metadata></metadata>
<defs>
<font id="sanchez_condensedregular" horiz-adv-x="1400" >
<font-face units-per-em="2048" ascent="1536" descent="-512" />
<missing-glyph horiz-adv-x="440" />
<glyph unicode="&#xfb01;" horiz-adv-x="1187" d="M66 895v88q0 25 22 25h98v127q0 171 77 259.5t218 88.5q27 0 52.5 -5.5t43.5 -12t37 -18t27.5 -18t21.5 -17.5l13 -11q18 -18 4 -35l-51 -63q-17 -17 -33 -5q-39 39 -98 39q-68 0 -105 -52t-37 -152v-125h645q23 0 23 -25v-846h88q23 0 23 -24v-88q0 -25 -23 -25h-354 q-10 0 -16.5 7t-6.5 18v88q0 24 23 24h96v733h-498v-733h152q22 0 22 -24v-88q0 -25 -22 -25h-418q-20 0 -20 25v88q0 24 20 24h96v733h-98q-22 0 -22 25zM811 1315q0 51 34 87t83 36q47 0 80.5 -36t33.5 -87q0 -49 -33.5 -84t-80.5 -35q-49 0 -83 34.5t-34 84.5z" />
<glyph unicode="&#xfb02;" horiz-adv-x="1185" d="M66 895v88q0 25 22 25h98v127q0 171 77 259.5t218 88.5q27 0 52.5 -5.5t43.5 -12t37 -18t27.5 -18t21.5 -17.5l13 -11q18 -18 4 -35l-51 -63q-17 -17 -33 -5q-39 39 -98 39q-68 0 -105 -52t-37 -152v-125h226q22 0 22 -25v-88q0 -25 -22 -25h-226v-733h152q22 0 22 -24 v-88q0 -25 -22 -25h-418q-20 0 -20 25v88q0 24 20 24h96v733h-98q-22 0 -22 25zM729 25v88q0 24 21 24h96v1196h-74q-22 0 -22 25v88q0 24 22 24h199q24 0 34.5 -12t10.5 -39v-1282h88q22 0 22 -24v-88q0 -25 -22 -25h-354q-21 0 -21 25z" />
<glyph unicode="&#xfb03;" horiz-adv-x="1847" d="M66 895v88q0 25 22 25h98v127q0 171 77 259.5t218 88.5q27 0 52.5 -5.5t43.5 -12t37 -18t27.5 -18t21.5 -17.5l13 -11q18 -18 4 -35l-51 -63q-17 -17 -33 -5q-39 39 -98 39q-68 0 -105 -52t-37 -152v-125h492v127q0 171 76.5 259.5t216.5 88.5q27 0 53 -5.5t44 -12 t37 -18t27.5 -18t21.5 -17.5l13 -11q18 -18 4 -35l-51 -63q-16 -16 -30 -5q-1 1 -7.5 5.5t-12 8t-15 8.5t-18.5 8.5t-22 6t-26 2.5q-141 0 -141 -204v-125h643q25 0 25 -25v-846h88q22 0 22 -24v-88q0 -25 -22 -25h-355q-22 0 -22 25v88q0 24 22 24h97v733h-498v-733h151 q23 0 23 -24v-88q0 -25 -23 -25h-417q-23 0 -23 25v88q0 24 23 24h96v733h-492v-733h152q22 0 22 -24v-88q0 -25 -22 -25h-418q-20 0 -20 25v88q0 24 20 24h96v733h-98q-22 0 -22 25zM1473 1315q0 51 33.5 87t82.5 36q48 0 82.5 -36t34.5 -87q0 -49 -34.5 -84t-82.5 -35 q-49 0 -82.5 34.5t-33.5 84.5z" />
<glyph unicode="&#xfb04;" horiz-adv-x="1849" d="M66 895v88q0 25 22 25h98v127q0 171 77 259.5t218 88.5q27 0 52.5 -5.5t43.5 -12t37 -18t27.5 -18t21.5 -17.5l13 -11q18 -18 4 -35l-51 -63q-17 -17 -33 -5q-39 39 -98 39q-68 0 -105 -52t-37 -152v-125h492v127q0 171 76.5 259.5t216.5 88.5q27 0 53 -5.5t44 -12 t37 -18t27.5 -18t21.5 -17.5l13 -11q18 -18 4 -35l-51 -63q-16 -16 -30 -5q-1 1 -7.5 5.5t-12 8t-15 8.5t-18.5 8.5t-22 6t-26 2.5q-141 0 -141 -204v-125h223q25 0 25 -25v-88q0 -25 -25 -25h-223v-733h151q23 0 23 -24v-88q0 -25 -23 -25h-417q-23 0 -23 25v88q0 24 23 24 h96v733h-492v-733h152q22 0 22 -24v-88q0 -25 -22 -25h-418q-20 0 -20 25v88q0 24 20 24h96v733h-98q-22 0 -22 25zM1389 25v88q0 24 24 24h92v1196h-73q-10 0 -16.5 6.5t-6.5 18.5v88q0 24 23 24h200q24 0 33.5 -12t9.5 -39v-1282h90q23 0 23 -24v-88q0 -25 -23 -25h-352 q-24 0 -24 25z" />
<glyph horiz-adv-x="2048" />
<glyph horiz-adv-x="2048" />
<glyph unicode="&#xd;" horiz-adv-x="2048" />
<glyph unicode=" "  horiz-adv-x="440" />
<glyph unicode="&#x09;" horiz-adv-x="440" />
<glyph unicode="&#xa0;" horiz-adv-x="440" />
<glyph unicode="!" horiz-adv-x="499" d="M147 8q0 46 30.5 77.5t74.5 31.5q43 0 73.5 -31.5t30.5 -77.5q0 -45 -30.5 -76.5t-73.5 -31.5q-44 0 -74.5 31t-30.5 77zM162 1532q0 24 22 24h133q21 0 21 -24l-16 -1204q0 -25 -23 -25h-96q-25 0 -25 25z" />
<glyph unicode="&#x22;" horiz-adv-x="591" d="M102 1509q0 12 7 19.5t18 7.5h90q11 0 19 -7.5t8 -19.5l-11 -333q-3 -27 -26 -27h-70q-11 0 -18.5 7.5t-7.5 19.5zM348 1509q0 12 8 19.5t19 7.5h90q11 0 19 -7.5t8 -19.5l-13 -333q0 -12 -6.5 -19.5t-17.5 -7.5h-72q-11 0 -18 7.5t-7 19.5z" />
<glyph unicode="#" horiz-adv-x="1085" d="M66 254v76q0 24 22 24h168l59 258h-133q-22 0 -22 27v74q0 26 22 26h170l54 224q6 26 28 26h103q23 0 16 -26l-53 -224h217l51 224q10 26 31 26h102q20 0 17 -26l-56 -224h135q21 0 21 -26v-74q0 -27 -21 -27h-170l-59 -258h135q23 0 23 -24v-76q0 -12 -7 -18.5t-16 -6.5 h-170l-51 -219q-6 -24 -31 -24h-102q-23 0 -17 24l54 219h-217l-52 -219q-6 -24 -28 -24h-103q-25 0 -16 24l51 219h-133q-22 0 -22 25zM403 354h215l62 258h-215z" />
<glyph unicode="$" horiz-adv-x="1167" d="M84 88v385q0 12 6.5 19.5t15.5 7.5h134q20 0 20 -27v-12q0 -13 10.5 -44.5t37 -77.5t65 -87t102.5 -70.5t141 -29.5q123 0 193 65t70 182q0 56 -26 98t-70 69.5t-100.5 49t-119.5 41t-126 41t-119.5 54t-100.5 75t-70 108.5t-26 150q0 167 105 279t284 119v141 q0 25 22 25h115q21 0 21 -25v-162q134 -23 204 -141l-4 80q0 24 25 24h115q22 0 22 -24v-375q0 -27 -22 -27h-131q-23 0 -23 27v37q-1 34 -17.5 74.5t-50 81.5t-94.5 68.5t-139 27.5q-107 0 -172.5 -65t-65.5 -165q0 -59 26.5 -104.5t71.5 -74.5t103.5 -51.5t123 -42 t128.5 -40.5t122.5 -52t103.5 -71.5t71.5 -103.5t26.5 -144q0 -84 -24 -155.5t-72 -128.5t-128.5 -92t-185.5 -39v-133q0 -25 -23 -25h-114q-23 0 -23 25v151q-98 17 -165.5 78.5t-108.5 142.5h-6l4 -137q0 -25 -23 -25h-117q-22 0 -22 25z" />
<glyph unicode="%" horiz-adv-x="1347" d="M59 1114q0 162 71.5 265.5t188.5 103.5t188 -103.5t71 -265.5q0 -171 -69.5 -275t-189.5 -104t-190 104t-70 275zM178 1110q0 -124 37.5 -193t103.5 -69q65 0 102.5 68.5t37.5 193.5t-37 192.5t-103 67.5q-68 0 -104.5 -68t-36.5 -192zM383 -127l422 1659q6 24 31 24h82 q22 0 16 -24l-424 -1659q-6 -25 -29 -25h-82q-22 0 -16 25zM768 365q0 162 71.5 265t188.5 103t186.5 -103t69.5 -265q0 -171 -68 -275t-188 -104t-190 104t-70 275zM887 360q0 -125 37 -193.5t104 -68.5q65 0 102 68.5t37 193.5t-36.5 193t-102.5 68q-67 0 -104 -68 t-37 -193z" />
<glyph unicode="&#x26;" horiz-adv-x="1198" d="M76 399q0 303 280 439q-40 55 -71 136.5t-31 174.5q0 156 84.5 245t218.5 89q129 0 215 -81.5t86 -240.5q0 -60 -17 -112.5t-41 -89.5t-63.5 -73t-70.5 -57.5t-76 -48.5l217 -364q19 53 25 122.5t6 186.5q0 25 24 25h256q23 0 23 -25v-100q0 -25 -23 -25h-123 q-3 -78 -26 -174.5t-62 -179.5l60 -96h114q25 0 25 -25v-100q0 -25 -25 -25h-155q-44 0 -88 68l-37 57q-114 -139 -301 -139q-104 0 -187.5 37t-133.5 97.5t-76.5 132t-26.5 146.5zM250 403q0 -126 71.5 -196t180.5 -70q75 0 125.5 24t87.5 85l-277 452q-29 -15 -49 -27.5 t-48.5 -38.5t-46.5 -55t-31 -74.5t-13 -99.5zM422 1147q0 -22 3 -42.5t10 -41.5t12.5 -35t17.5 -35.5t16.5 -29.5t19 -30t15.5 -24q81 45 108 70q68 62 68 176q0 75 -33.5 125.5t-93.5 50.5q-67 0 -105 -48.5t-38 -135.5z" />
<glyph unicode="'" horiz-adv-x="344" d="M102 1509q0 12 7 19.5t18 7.5h90q11 0 19 -7.5t8 -19.5l-11 -333q-3 -27 -26 -27h-70q-11 0 -18.5 7.5t-7.5 19.5z" />
<glyph unicode="(" horiz-adv-x="729" d="M82 719q0 142 24 266t66.5 215t98 162.5t120 115.5t132 66.5t134.5 22.5q23 0 23 -27v-104q0 -27 -23 -27q-71 0 -141 -42.5t-130.5 -124.5t-98 -219.5t-37.5 -309.5q0 -141 25.5 -258.5t66.5 -195.5t95 -132.5t109.5 -79t110.5 -24.5q23 0 23 -27v-105q0 -26 -23 -26 q-81 0 -161 31.5t-155 100t-132.5 166t-92 241.5t-34.5 315z" />
<glyph unicode=")" horiz-adv-x="729" d="M49 -6q0 12 7.5 20.5t17.5 8.5q55 0 110.5 24t109.5 78.5t95 132.5t66.5 195t25.5 258q0 172 -37.5 309.5t-98 219.5t-130.5 124.5t-141 42.5q-11 0 -18 8t-7 19v104q0 12 7 19.5t18 7.5q81 0 161 -31t155 -99t131.5 -165t91 -240t34.5 -313t-34.5 -314t-91.5 -241.5 t-131.5 -166.5t-154.5 -100.5t-161 -31.5q-11 0 -18 8t-7 20v103z" />
<glyph unicode="*" horiz-adv-x="768" d="M84 1167v70q0 12 8.5 21t18.5 6l198 -29l-162 147q-7 8 -7 20t7 19l50 49q8 8 18 8.5t16 -8.5l121 -182l-28 232q-1 10 6 18t18 8h70q11 0 19 -7.5t7 -18.5l-24 -234l117 184q6 9 16 9t18 -9l50 -47q7 -9 7 -21t-7 -20l-158 -149l194 33q10 1 17.5 -7t7.5 -20v-70 q0 -12 -7 -20t-18 -8l-190 22l154 -139q7 -8 7 -19t-7 -20l-50 -49q-7 -9 -18 -9t-18 9l-119 178l28 -227q1 -11 -7 -19t-19 -8h-70q-11 0 -18 8.5t-6 18.5l24 231l-115 -182q-6 -9 -17 -10t-19 8l-47 49q-9 9 -9 21t9 20l159 141l-198 -24q-11 -2 -19 6t-8 20z" />
<glyph unicode="+" horiz-adv-x="884" d="M72 514v104q0 12 7.5 19.5t18.5 7.5h264v334q0 27 23 27h123q11 0 17.5 -7.5t6.5 -19.5v-334h254q11 0 19 -7.5t8 -19.5v-104q0 -12 -8 -19.5t-19 -7.5h-254v-321q0 -12 -6.5 -19.5t-17.5 -7.5h-123q-23 0 -23 27v321h-264q-11 0 -18.5 7.5t-7.5 19.5z" />
<glyph unicode="," horiz-adv-x="413" d="M111 80q0 41 26 68.5t64 27.5q50 0 78 -39t28 -110q0 -117 -40.5 -171.5t-108.5 -54.5q-11 0 -11 11v38q0 6 3.5 9.5t7.5 3.5q29 0 51 27t22 81l-4 25q-7 -10 -32 -10q-35 0 -59.5 26t-24.5 68z" />
<glyph unicode="-" horiz-adv-x="843" d="M119 481v105q0 12 7.5 19t18.5 7h555q11 0 18 -7t7 -19v-105q0 -12 -7 -19t-18 -7h-555q-11 0 -18.5 7t-7.5 19z" />
<glyph unicode="." horiz-adv-x="397" d="M109 82q0 40 26.5 68t63.5 28q38 0 65 -28t27 -68q0 -41 -26.5 -68.5t-65.5 -27.5q-37 0 -63.5 27.5t-26.5 68.5z" />
<glyph unicode="/" horiz-adv-x="724" d="M63 -127l424 1659q6 24 29 24h127q19 0 16 -24l-423 -1659q-9 -25 -29 -25h-127q-23 0 -17 25z" />
<glyph unicode="0" horiz-adv-x="1220" d="M94 743q0 214 63 381.5t181 263t274 95.5q155 0 272.5 -95.5t179.5 -263t62 -381.5q0 -225 -60.5 -395t-177.5 -266t-276 -96q-241 0 -379.5 207t-138.5 550zM279 737q0 -279 88.5 -434.5t244.5 -155.5t242 154t86 436q0 274 -88 429t-242 155t-242.5 -155.5 t-88.5 -428.5z" />
<glyph unicode="1" horiz-adv-x="862" d="M70 1165q-13 19 6 35l313 256q17 14 31 14h127q24 0 24 -24v-1296h252q23 0 23 -25v-100q0 -25 -23 -25h-710q-23 0 -23 25v100q0 25 23 25h282v1128l-233 -203q-19 -15 -31 6z" />
<glyph unicode="2" horiz-adv-x="1120" d="M88 25v59q0 99 25 181t67.5 140t97.5 106.5t116 86t121.5 72t115.5 71t97.5 77t67.5 96t25 122.5q0 119 -73 202t-187 83q-136 0 -209 -85t-73 -214q0 -25 -23 -25h-135q-21 0 -21 25q0 89 28 169.5t82 146.5t145 105.5t206 39.5q106 0 192.5 -36t141.5 -97t84 -139 t29 -164q0 -85 -24 -157t-65 -124t-94.5 -97.5t-113 -82t-119.5 -71.5t-115.5 -72.5t-99 -78.5t-72 -95.5t-33.5 -118.5h580v147q0 25 22 25h121q25 0 25 -25v-272q0 -25 -25 -25h-882q-25 0 -25 25z" />
<glyph unicode="3" horiz-adv-x="1073" d="M70 225q-12 21 0 35l94 82q14 17 31 0q4 -5 27 -33.5t36.5 -43.5t43 -41t56.5 -40t67 -25.5t83 -11.5q128 0 205.5 78t77.5 205q0 260 -279 260h-76q-22 0 -22 25v94q0 13 6 22t16 9h58q34 0 65 4.5t68 20t64 40t45 68.5t18 102q0 105 -59.5 175.5t-178.5 70.5 q-57 0 -102 -22t-72 -57.5t-41 -77t-14 -83.5q0 -24 -23 -24h-125q-24 0 -24 24q0 184 107.5 293t293.5 109q88 0 161 -24t120.5 -63.5t80.5 -91t47.5 -105t14.5 -107.5q0 -75 -21.5 -135.5t-52 -93t-61.5 -54t-53 -28.5l-21 -7v-2q5 -1 14 -2.5t34.5 -11t48.5 -23.5 t51.5 -42.5t49 -65t34.5 -93.5t14 -126q0 -191 -128.5 -306.5t-340.5 -115.5q-284 0 -435 234l-1.5 3t-1.5 2z" />
<glyph unicode="4" horiz-adv-x="1056" d="M33 481v97q0 33 24 65l543 780q18 29 30.5 38t28.5 9h123q23 0 23 -24v-840h137q25 0 25 -26v-99q0 -24 -25 -24h-137v-307h149q23 0 23 -25v-100q0 -25 -23 -25h-534q-23 0 -23 25v100q0 25 23 25h211v307h-576q-22 0 -22 24zM199 600h432v619z" />
<glyph unicode="5" horiz-adv-x="1073" d="M76 225q-13 22 2 35l92 82q8 9 17.5 8.5t15.5 -8.5q1 -1 26.5 -34t36 -45t41.5 -40t56.5 -40.5t66 -24t84.5 -11.5q138 0 213.5 87t75.5 247q0 142 -77 227t-214 85q-49 0 -102 -8.5t-85.5 -18t-75.5 -23t-52 -16.5q-50 -15 -50 49v674q0 25 25 25h721q22 0 22 -25v-262 q0 -25 -22 -25h-121q-22 0 -22 25v133h-424v-410q4 1 39 12.5t84.5 21t103.5 9.5q211 0 323.5 -130.5t112.5 -350.5q0 -223 -128.5 -355t-346.5 -132q-81 0 -154 22t-119.5 51t-85 66.5t-54.5 60t-25 39.5z" />
<glyph unicode="6" horiz-adv-x="1140" d="M96 723q0 229 59 399.5t176.5 265.5t280.5 95q184 0 290 -106t106 -277q0 -25 -21 -25h-127q-20 0 -20 25q0 36 -13.5 73t-40 71t-72 55.5t-102.5 21.5q-146 0 -228 -126.5t-97 -354.5q53 41 139 74.5t195 33.5q210 0 320 -128t110 -347q0 -214 -124.5 -350.5 t-338.5 -136.5q-153 0 -265 93t-169.5 259t-57.5 385zM283 676q6 -251 83.5 -390t221.5 -139q131 0 204.5 92t73.5 240q0 141 -74.5 224t-211.5 83q-73 0 -142 -24t-99.5 -44t-55.5 -42z" />
<glyph unicode="7" horiz-adv-x="983" d="M41 1163v283q0 24 22 24h871q20 0 20 -24v-64q0 -110 -23.5 -200t-61 -156.5t-82.5 -131.5t-90 -142.5t-82.5 -170.5t-61 -235.5t-23.5 -318.5q0 -27 -22 -27h-135q-23 0 -23 25q0 185 21.5 333.5t56.5 244t77.5 173t85 136.5t78.5 116t60 131t27 162h-549v-158 q0 -24 -23 -24h-121q-22 0 -22 24z" />
<glyph unicode="8" horiz-adv-x="1136" d="M92 416q0 66 13.5 122t35 92.5t47.5 66t52 45.5t47.5 26.5t34.5 13.5l14 4v5q-8 2 -21.5 7.5t-47.5 29t-59.5 54.5t-47 88.5t-21.5 127.5q0 54 14 106.5t47 103.5t81 89t122.5 61.5t165.5 24.5q90 0 164 -23.5t122 -62t81 -89t47 -103.5t14 -107q0 -69 -20 -126.5 t-49 -89.5t-58 -54t-49 -30l-20 -7v-5q5 -1 14 -3.5t34 -14t48 -27t51 -45t48 -66t34 -92.5t14 -122q0 -193 -126 -311.5t-349 -118.5t-350 118.5t-127 311.5zM276 432q0 -131 78 -208t215 -77q138 0 214.5 76.5t76.5 208.5q0 130 -68 199t-202 69h-43q-134 0 -202.5 -68.5 t-68.5 -199.5zM324 1077q0 -59 17 -103t42 -68.5t59.5 -39.5t63 -19.5t59.5 -4.5q33 0 63 4.5t65.5 19.5t60.5 39.5t42 68.5t17 103q0 105 -63 174.5t-183 69.5q-119 -1 -181 -70t-62 -174z" />
<glyph unicode="9" horiz-adv-x="1134" d="M86 995q0 214 124.5 351t338.5 137q153 0 264.5 -93.5t169 -259.5t57.5 -385q0 -349 -135.5 -554t-380.5 -205q-183 0 -289 106.5t-106 276.5q0 24 21 24h126q23 0 23 -24q0 -36 13 -73t39 -71.5t71 -56t102 -21.5q144 0 226 125.5t100 354.5q-147 -107 -334 -107 q-210 0 -320 128t-110 347zM270 989q0 -141 75 -224t212 -83q72 0 140.5 23.5t99.5 44t55 41.5q-6 252 -82.5 391t-218.5 139q-131 0 -206 -92t-75 -240z" />
<glyph unicode=":" horiz-adv-x="419" d="M119 82q0 40 26.5 68t63.5 28q38 0 65 -28t27 -68q0 -41 -26.5 -68.5t-65.5 -27.5q-37 0 -63.5 27.5t-26.5 68.5zM119 901q0 41 26.5 69.5t63.5 28.5q38 0 65 -28.5t27 -69.5q0 -40 -27 -68t-65 -28q-37 0 -63.5 28t-26.5 68z" />
<glyph unicode=";" horiz-adv-x="446" d="M127 80q0 41 26 68.5t64 27.5q50 0 77.5 -38.5t27.5 -110.5q0 -115 -40 -168.5t-108 -53.5q-10 0 -10 11v34q0 13 10 13q30 0 51 27t21 81l-2 25q-10 -10 -33 -10q-36 0 -60 26t-24 68zM127 901q0 41 26.5 69.5t63.5 28.5q38 0 65 -28.5t27 -69.5q0 -40 -27 -68t-65 -28 q-37 0 -63.5 28t-26.5 68z" />
<glyph unicode="&#x3c;" horiz-adv-x="837" d="M68 502v37q0 26 26 39l596 329q10 5 17.5 0.5t7.5 -16.5v-88q0 -27 -25 -41l-414 -242l414 -241q25 -11 25 -39v-88q0 -12 -7 -17t-18 0l-596 328q-26 13 -26 39z" />
<glyph unicode="=" horiz-adv-x="878" d="M127 231v105q0 12 7 19t18 7h575q25 0 25 -26v-105q0 -26 -25 -26h-575q-11 0 -18 7t-7 19zM127 715v102q0 12 7.5 20.5t17.5 8.5h575q25 0 25 -29v-102q0 -29 -25 -29h-575q-10 0 -17.5 8.5t-7.5 20.5z" />
<glyph unicode="&#x3e;" horiz-adv-x="839" d="M125 152v88q0 28 25 39l413 241l-413 242q-25 14 -25 41v88q0 12 7.5 16.5t17.5 -0.5l595 -329q27 -14 27 -39v-37q0 -26 -27 -39l-595 -328q-11 -5 -18 0t-7 17z" />
<glyph unicode="?" horiz-adv-x="952" d="M59 981q0 78 12.5 147.5t43 136t77 114t119.5 76t166 28.5q192 0 299 -119.5t107 -302.5q0 -78 -21 -143.5t-54 -112t-73.5 -89t-80.5 -84.5t-73 -88.5t-54 -111t-21 -141.5q0 -25 -23 -25h-125q-22 0 -22 25q0 95 20 174.5t52 134t70.5 101.5t77 86t70.5 77.5t52 87 t20 103.5q0 119 -59 192.5t-162 73.5q-123 0 -181 -93t-60 -247q0 -25 -23 -25h-131q-23 0 -23 25zM315 14q0 47 33.5 81t79.5 34t79.5 -34t33.5 -81t-33.5 -80.5t-79.5 -33.5t-79.5 33.5t-33.5 80.5z" />
<glyph unicode="@" horiz-adv-x="1409" d="M88 471q0 166 55.5 316.5t148 258t219 171t263.5 63.5q174 0 305 -81.5t196.5 -214.5t65.5 -296q0 -133 -36.5 -240t-97.5 -173t-137 -101t-159 -35q-46 0 -65 17t-15 61l5 43l-2 -5q-3 -5 -7.5 -12t-11 -16.5t-15 -20t-19 -21t-24 -20t-28.5 -16.5t-33 -11.5t-37 -4.5 q-46 0 -88.5 19t-79.5 58t-59 109t-22 162q0 191 101.5 309.5t240.5 118.5q112 0 147 -84l6 41q3 23 23 23h67q10 0 15.5 -7t3.5 -18l-64 -604h27q94 0 162.5 114t68.5 310q0 202 -117.5 327.5t-316.5 125.5q-116 0 -217.5 -56t-171 -148t-109.5 -213t-40 -249 q0 -127 38 -237t103 -185.5t153 -118.5t185 -43q67 0 128 7t99.5 17.5t67.5 21t42 17.5l13 7q7 6 16 3t13 -15l32 -72q10 -24 -10 -33q-6 -4 -17.5 -10.5t-51.5 -23.5t-83 -30t-111 -23.5t-138 -10.5q-174 0 -317.5 94t-226.5 261.5t-83 373.5zM535 485q0 -115 45 -169 t110 -54q59 0 108 64.5t56 126.5l20 211q-1 15 -7 33.5t-18.5 41t-37.5 37.5t-57 15q-87 0 -153 -84t-66 -222z" />
<glyph unicode="A" horiz-adv-x="1271" d="M-8 25v100q0 25 22 25h119l365 1171h-105q-22 0 -22 25v100q0 24 22 24h264q44 0 67.5 -20t43.5 -68l391 -1232h117q24 0 24 -25v-100q0 -25 -24 -25h-414q-24 0 -24 25v100q0 25 24 25h119l-98 348h-475l-101 -348h121q25 0 25 -25v-100q0 -25 -25 -25h-414 q-22 0 -22 25zM461 647h368l-180 617h-12z" />
<glyph unicode="B" horiz-adv-x="1191" d="M80 25v100q0 25 22 25h131v1171h-131q-22 0 -22 25v100q0 24 22 24h572q174 0 273.5 -109t99.5 -284q0 -100 -40.5 -180.5t-111.5 -128.5q219 -77 219 -348q0 -192 -110.5 -306t-327.5 -114h-574q-22 0 -22 25zM408 150h245q132 0 206.5 69.5t74.5 214.5q0 127 -70 189.5 t-200 62.5h-256v-536zM408 827h239q89 2 153 60t64 176q0 73 -19.5 125.5t-54 80t-74 40t-85.5 12.5h-223v-494z" />
<glyph unicode="C" horiz-adv-x="1323" d="M86 743q0 170 49 312t131.5 234t189.5 143t224 51q79 0 146 -21t112.5 -56.5t74.5 -69.5t50 -72l-2 182q0 24 22 24h117q21 0 21 -24v-447q0 -26 -21 -26h-131q-11 0 -18 7t-7 19v19q0 43 -26 94.5t-70 98.5t-113 78.5t-145 31.5q-80 0 -153.5 -36.5t-134 -106.5 t-96.5 -184t-36 -257q0 -142 37.5 -257t99 -186t137.5 -109t158 -38q75 0 140 20.5t108.5 49.5t79.5 68.5t55 69.5t33 61q11 24 31 12l92 -57q10 -8 10 -21q0 -9 -6 -20q-10 -21 -19.5 -38.5t-35 -55.5t-53.5 -67.5t-74.5 -65.5t-97.5 -60t-123 -40.5t-152 -16.5 q-126 0 -236.5 54t-192 150.5t-128.5 239.5t-47 313z" />
<glyph unicode="D" horiz-adv-x="1302" d="M80 25v100q0 25 22 25h131v1171h-131q-22 0 -22 25v100q0 24 22 24h476q288 0 463.5 -196t175.5 -537t-164 -539t-435 -198h-516q-22 0 -22 25zM408 150h155q228 2 348.5 148.5t120.5 434.5q0 278 -122 433t-355 155h-147v-1171z" />
<glyph unicode="E" horiz-adv-x="1173" d="M80 25v100q0 25 22 25h131v1171h-131q-22 0 -22 25v100q0 24 22 24h951q22 0 22 -24v-328q0 -24 -22 -24h-121q-23 0 -23 24v203h-501v-512h419q23 0 23 -25v-100q0 -25 -23 -25h-419v-509h499v200q0 25 25 25h121q22 0 22 -25v-325q0 -25 -22 -25h-951q-22 0 -22 25z " />
<glyph unicode="F" horiz-adv-x="1089" d="M80 25v100q0 25 22 25h131v1171h-131q-22 0 -22 25v100q0 24 22 24h924q25 0 25 -24v-328q0 -24 -25 -24h-121q-22 0 -22 24v203h-475v-512h393q22 0 22 -25v-100q0 -25 -22 -25h-393v-509h202q23 0 23 -25v-100q0 -25 -23 -25h-508q-22 0 -22 25z" />
<glyph unicode="G" horiz-adv-x="1357" d="M86 743q0 172 50.5 315t134.5 234t191.5 141t223.5 50q79 0 144.5 -18t110 -49t73.5 -62t49 -66l-2 158q0 24 22 24h117q21 0 21 -24v-422q0 -25 -21 -25h-131q-25 0 -25 25v25q0 42 -25.5 89t-68.5 88t-110 68t-142 27q-83 0 -160 -41t-137 -114.5t-95.5 -185 t-35.5 -243.5q0 -139 38 -253.5t100.5 -186.5t139.5 -111t159 -39q133 0 224 58.5t144 140.5v178h-323q-9 0 -16 7.5t-7 19.5v96q0 27 23 27h471q22 0 22 -27v-622q0 -25 -22 -25h-109q-22 0 -22 25v141q-151 -180 -396 -180q-128 0 -240 54t-194 150.5t-129 239.5t-47 313z " />
<glyph unicode="H" horiz-adv-x="1437" d="M80 25v100q0 25 22 25h131v1171h-131q-22 0 -22 25v100q0 24 22 24h439q22 0 22 -24v-100q0 -25 -22 -25h-133v-512h622v512h-133q-20 0 -20 25v100q0 24 20 24h438q23 0 23 -24v-100q0 -25 -23 -25h-131v-1171h131q23 0 23 -25v-100q0 -25 -23 -25h-438q-20 0 -20 25 v100q0 25 20 25h133v509h-622v-509h133q22 0 22 -25v-100q0 -25 -22 -25h-439q-22 0 -22 25z" />
<glyph unicode="I" horiz-adv-x="645" d="M80 25v100q0 25 22 25h131v1171h-131q-22 0 -22 25v100q0 24 22 24h439q22 0 22 -24v-100q0 -25 -22 -25h-133v-1171h133q22 0 22 -25v-100q0 -25 -22 -25h-439q-22 0 -22 25z" />
<glyph unicode="J" horiz-adv-x="790" d="M57 25v100q0 25 21 25q188 0 264 92.5t76 289.5v789h-131q-23 0 -23 25v100q0 24 23 24h436q25 0 25 -24v-100q0 -25 -25 -25h-131v-766q0 -203 -58 -326t-168.5 -176t-287.5 -53q-21 0 -21 25z" />
<glyph unicode="K" horiz-adv-x="1300" d="M80 25v100q0 25 22 25h131v1171h-131q-22 0 -22 25v100q0 24 22 24h408q22 0 22 -24v-100q0 -25 -22 -25h-102v-580h165q90 0 153.5 27.5t110.5 93t69.5 179t23.5 280.5h-121q-23 0 -23 25v100q0 24 23 24h412q22 0 22 -24v-100q0 -25 -22 -25h-119q-3 -500 -232 -649 q28 -15 50.5 -44t32 -48.5t32.5 -71.5l139 -358h109q24 0 24 -25v-100q0 -25 -24 -25h-164q-38 0 -63.5 24.5t-47.5 73.5l-159 391q-11 26 -18 39t-24.5 33.5t-46 29.5t-69.5 9h-233v-450h163q23 0 23 -25v-100q0 -11 -7 -18t-16 -7h-469q-22 0 -22 25z" />
<glyph unicode="L" horiz-adv-x="1126" d="M80 25v100q0 25 22 25h131v1171h-131q-22 0 -22 25v100q0 24 22 24h437q24 0 24 -26v-96q0 -12 -6.5 -19.5t-17.5 -7.5h-131v-1171h522v200q0 25 20 25h123q23 0 23 -25v-323q0 -12 -7.5 -19.5t-19.5 -7.5h-967q-22 0 -22 25z" />
<glyph unicode="M" horiz-adv-x="1615" d="M80 25v100q0 25 22 25h131v1171h-131q-22 0 -22 25v100q0 24 22 24h314q64 0 90 -69l221 -737q15 -41 34 -105.5t31 -108.5l11 -44h8q47 159 82 253l223 742q26 69 90 69h305q23 0 23 -24v-100q0 -25 -23 -25h-131v-1171h131q23 0 23 -25v-100q0 -25 -23 -25h-415 q-21 0 -21 25v100q0 25 21 25h110v1081h-4l-309 -1024q-21 -62 -86 -62q-67 0 -88 62l-307 1024h-4v-1081h110q23 0 23 -25v-100q0 -25 -23 -25h-416q-22 0 -22 25z" />
<glyph unicode="N" horiz-adv-x="1415" d="M80 25v100q0 25 22 25h131v1167h-131q-22 0 -22 24v105q0 24 22 24h252q25 0 45 -11.5t29.5 -23t24.5 -34.5l469 -914q25 -46 50 -99.5t38 -83.5l12 -30h4v1047h-133q-21 0 -21 25v100q0 24 21 24h438q25 0 25 -24v-100q0 -25 -25 -25h-131v-1296q0 -25 -22 -25h-107 q-36 0 -56.5 15t-39.5 48l-479 928q-21 41 -42 88t-32 74l-10 27h-4v-1030h133q22 0 22 -25v-100q0 -25 -22 -25h-439q-22 0 -22 25z" />
<glyph unicode="O" d="M84 743q0 170 51.5 312t137.5 234t196.5 143t230.5 51t231 -51t198 -143t138.5 -234t51.5 -312q0 -169 -47.5 -311.5t-130.5 -239.5t-197 -151.5t-244 -54.5q-129 0 -242 55.5t-195.5 153.5t-130.5 240t-48 308zM268 737q0 -139 37 -253.5t98 -186.5t137.5 -111 t159.5 -39t159.5 39t138 111t98.5 186.5t37 253.5q0 114 -25 211t-67.5 164.5t-98.5 115.5t-117.5 70.5t-124.5 22.5q-79 0 -154.5 -37t-138 -106.5t-101 -184.5t-38.5 -256z" />
<glyph unicode="P" horiz-adv-x="1124" d="M80 25v100q0 25 22 25h131v1171h-131q-22 0 -22 25v100q0 24 22 24h551q188 0 307 -125t119 -339t-118 -332.5t-328 -118.5h-225v-405h167q23 0 23 -25v-100q0 -25 -23 -25h-473q-22 0 -22 25zM408 705h206q140 0 211.5 71t71.5 228q0 159 -79.5 238t-201.5 79h-208v-616 z" />
<glyph unicode="Q" d="M84 743q0 170 51.5 312t137.5 234t196.5 143t230.5 51t231 -51t198 -143t138.5 -234t51.5 -312q0 -316 -154.5 -521t-394.5 -232q8 -8 33.5 -21.5t95.5 -31t152 -17.5q98 0 178 41q20 8 28 -8l33 -107q7 -20 -12 -32q-112 -56 -231 -56q-95 0 -180.5 26t-141 62.5t-96 73 t-59.5 62.5t-17 26q-207 45 -338 245t-131 490zM268 737q0 -139 37 -253.5t98 -186.5t137.5 -111t159.5 -39t159.5 39t138 111t98.5 186.5t37 253.5q0 114 -25 211t-67.5 164.5t-98.5 115.5t-117.5 70.5t-124.5 22.5q-79 0 -154.5 -37t-138 -106.5t-101 -184.5t-38.5 -256z " />
<glyph unicode="R" horiz-adv-x="1232" d="M80 25v100q0 25 22 25h131v1171h-131q-22 0 -22 25v100q0 24 22 24h555q190 0 308 -115t118 -327q0 -159 -63 -261t-184 -140q31 -29 79 -138l140 -339h108q23 0 23 -25v-100q0 -25 -23 -25h-170q-37 0 -61.5 24t-48.5 74l-158 391q-22 53 -45.5 79.5t-65.5 27.5h-206 v-446h161q21 0 21 -25v-100q0 -25 -21 -25h-467q-22 0 -22 25zM408 737h204q142 0 215.5 65.5t73.5 219.5q0 159 -79 229t-210 70h-204v-584z" />
<glyph unicode="S" horiz-adv-x="1183" d="M96 25v473q0 24 23 24h131q22 0 22 -24v-29q0 -13 10.5 -45.5t38.5 -80t67 -89.5t105.5 -72t145.5 -30q130 0 202 63.5t72 179.5q0 55 -26.5 97t-72 68.5t-104 48t-123 41t-129 41.5t-123 55t-104 76t-72 110t-26.5 153q0 172 111.5 285t300.5 113q234 0 340 -162l-2 127 q-3 25 22 25h115q22 0 22 -25v-442q0 -27 -22 -27h-131q-23 0 -23 27v57q0 26 -9.5 58t-32.5 67t-56.5 63.5t-86 47t-116.5 18.5q-114 0 -181 -65.5t-67 -166.5q0 -56 27 -98.5t72.5 -70.5t104.5 -50.5t124 -42.5t130.5 -42t124.5 -54t104.5 -74t72.5 -106t27 -146 q0 -85 -25.5 -158.5t-77 -131.5t-137.5 -91.5t-198 -33.5q-71 0 -134.5 18t-107 45t-79.5 62.5t-56 65.5t-33 59l2 -211q0 -25 -25 -25h-114q-23 0 -23 25z" />
<glyph unicode="T" horiz-adv-x="1183" d="M33 1120v324q0 12 7.5 19t18.5 7h1067q23 0 23 -26v-324q0 -12 -6.5 -20t-16.5 -8h-116q-25 0 -25 28v201h-305v-1171h123q11 0 17.5 -7.5t6.5 -19.5v-96q0 -12 -6.5 -19.5t-17.5 -7.5h-424q-11 0 -19 7.5t-8 19.5v96q0 12 8 19.5t19 7.5h127v1171h-305v-201 q0 -12 -7 -20t-18 -8h-117q-11 0 -18.5 8t-7.5 20z" />
<glyph unicode="U" horiz-adv-x="1345" d="M43 1346v100q0 24 20 24h439q22 0 22 -24v-100q0 -25 -22 -25h-131v-776q0 -89 15 -158t48.5 -124.5t94.5 -85.5t147 -30q152 0 225.5 103.5t73.5 281.5v789h-131q-25 0 -25 25v100q0 24 25 24h438q23 0 23 -24v-100q0 -25 -23 -25h-133v-770q0 -277 -124 -421t-349 -144 q-228 0 -354.5 144t-126.5 421v770h-132q-20 0 -20 25z" />
<glyph unicode="V" horiz-adv-x="1282" d="M-23 1346v100q0 24 21 24h420q22 0 22 -24v-100q0 -25 -22 -25h-117l336 -1112h10l336 1112h-117q-24 0 -24 25v100q0 24 24 24h418q25 0 25 -24v-100q0 -25 -25 -25h-115l-397 -1239q-17 -44 -35 -63t-55 -19h-78q-37 0 -56 18.5t-38 63.5l-399 1239h-113q-21 0 -21 25z " />
<glyph unicode="W" horiz-adv-x="1769" d="M-14 1346v100q0 24 22 24h420q23 0 23 -24v-100q0 -25 -23 -25h-121l246 -1112h12l238 1261h162l239 -1261h13l247 1112h-121q-24 0 -24 25v100q0 24 24 24h418q25 0 25 -24v-100q0 -25 -25 -25h-110l-310 -1239q-13 -43 -33.5 -62.5t-58.5 -19.5h-75q-76 0 -93 82 l-194 1042h-6l-191 -1042q-11 -43 -33 -62.5t-61 -19.5h-74q-39 0 -60 20t-32 62l-313 1239h-109q-22 0 -22 25z" />
<glyph unicode="X" horiz-adv-x="1341" d="M37 25v100q0 25 22 25h134l372 567l-381 604h-125q-20 0 -20 25v100q0 24 20 24h443q22 0 22 -24v-100q0 -25 -22 -25h-113l283 -467l280 469h-108q-23 0 -23 25v100q0 25 23 25h442q23 0 23 -25v-100q0 -25 -23 -25h-133l-381 -596l367 -577h135q24 0 24 -25v-100 q0 -25 -24 -25h-443q-20 0 -20 25v100q0 25 20 25h103l-270 442l-271 -442h109q20 0 20 -25v-100q0 -25 -20 -25h-443q-22 0 -22 25z" />
<glyph unicode="Y" horiz-adv-x="1163" d="M-14 1346v100q0 24 22 24h428q25 0 25 -24v-100q0 -25 -25 -25h-108l256 -576h8l252 576h-117q-20 0 -20 25v100q0 24 20 24h428q25 0 25 -24v-100q0 -25 -25 -25h-119l-368 -733v-438h135q22 0 22 -25v-100q0 -25 -22 -25h-445q-22 0 -22 25v100q0 25 22 25h136v438 l-367 733h-119q-22 0 -22 25z" />
<glyph unicode="Z" horiz-adv-x="1144" d="M86 27v88q0 19 39 69l706 1137h-577v-168q0 -12 -8 -19.5t-19 -7.5h-116q-11 0 -18 7.5t-7 19.5v291q0 12 7 19t18 7h923q11 0 18 -7t7 -19v-76q0 -7 -2 -14.5t-4 -13t-8 -15t-8 -13.5t-10 -15t-9 -13l-705 -1134h578v167q0 12 7.5 19.5t19.5 7.5h116q11 0 18 -7.5 t7 -19.5v-290q0 -12 -7 -19.5t-18 -7.5h-923q-11 0 -18 7.5t-7 19.5z" />
<glyph unicode="[" horiz-adv-x="651" d="M170 -121v1665q0 25 25 25h378q10 0 17.5 -8.5t7.5 -20.5v-106q0 -12 -7 -19.5t-18 -7.5h-231v-1391h231q11 0 18 -8t7 -20v-107q0 -12 -7 -19t-18 -7h-378q-25 0 -25 24z" />
<glyph unicode="\" horiz-adv-x="724" d="M63 1532q-6 24 17 24h127q23 0 29 -24l423 -1659q6 -25 -16 -25h-127q-23 0 -29 25z" />
<glyph unicode="]" horiz-adv-x="651" d="M53 -12q0 12 8 20t19 8h231v1391h-231q-11 0 -19 7.5t-8 19.5v106q0 12 8 20.5t19 8.5h379q22 0 22 -25v-1665q0 -24 -22 -24h-379q-11 0 -19 7t-8 19v107z" />
<glyph unicode="_" horiz-adv-x="1085" d="M117 -74q0 27 24 27h803q11 0 18 -7.5t7 -19.5v-104q0 -12 -7 -19.5t-18 -7.5h-803q-24 0 -24 27v104z" />
<glyph unicode="`" horiz-adv-x="530" d="M63 1487l70 76q6 9 16.5 10t18.5 -6l293 -291q19 -16 4 -39l-53 -59q-17 -20 -37 -4l-307 274q-15 15 -5 39z" />
<glyph unicode="a" horiz-adv-x="983" d="M61 279q0 157 120.5 235t344.5 78h144v26q0 139 -55.5 199t-157.5 60q-59 0 -109.5 -13.5t-75 -29t-48 -34t-27.5 -20.5q-16 -8 -27 6l-59 72q-12 17 4 33q51 48 93 71q109 60 257 60q375 0 375 -410v-475h94q22 0 22 -24v-88q0 -25 -22 -25h-168q-39 0 -57.5 20 t-18.5 66v104h-4q-109 -206 -315 -206q-141 0 -225.5 79t-84.5 216zM238 279q0 -67 41.5 -107.5t103.5 -40.5q162 0 287 184v140h-144q-144 0 -216 -39.5t-72 -136.5z" />
<glyph unicode="b" horiz-adv-x="1048" d="M20 1358v88q0 24 23 24h236q22 0 22 -24v-545l-6 -80h6q26 83 97.5 142t181.5 59q180 0 287.5 -142t107.5 -370q0 -237 -110.5 -380.5t-286.5 -143.5q-113 0 -185 60.5t-98 146.5h-2v-168q0 -11 -6.5 -18t-16.5 -7h-112q-25 0 -25 25v1308h-90q-23 0 -23 25zM301 506 q0 -170 71 -273.5t179 -103.5q113 0 184.5 105t71.5 274t-73.5 270t-182.5 101q-106 0 -178 -100t-72 -273z" />
<glyph unicode="c" horiz-adv-x="980" d="M74 508q0 120 35.5 219.5t95 162.5t134 97.5t155.5 34.5q58 0 106.5 -14.5t81 -39t53 -48.5t33.5 -50h2l-2 113q0 27 23 27h81q23 0 23 -27v-348q0 -25 -23 -25h-98q-22 0 -22 25v35q-2 74 -68.5 141.5t-167.5 67.5q-104 0 -188 -100.5t-84 -272.5q0 -173 83.5 -275 t194.5 -102q52 0 100.5 18t82.5 45.5t56 52t32 44.5q13 22 32 6l60 -57q12 -10 12 -22q0 -7 -4 -15q-9 -17 -25.5 -40t-50.5 -55t-75 -57.5t-102 -44t-128 -18.5q-188 0 -313 141.5t-125 380.5z" />
<glyph unicode="d" horiz-adv-x="1077" d="M74 510q0 227 109.5 369.5t289.5 142.5q109 0 178 -55t97 -136h2q-2 35 -2 58v444h-97q-24 0 -24 25v88q0 24 24 24h242q20 0 20 -24v-1309h93q22 0 22 -24v-88q0 -25 -22 -25h-168q-41 0 -60.5 20t-19.5 66v115h-2q-23 -85 -98.5 -150t-186.5 -65q-176 0 -286.5 143.5 t-110.5 380.5zM242 508q0 -169 71.5 -274t184.5 -105q108 0 179 103.5t71 273.5q0 173 -72.5 273t-177.5 100q-110 0 -183 -101t-73 -270z" />
<glyph unicode="e" horiz-adv-x="968" d="M74 508q0 120 36 219.5t95.5 162.5t134 97.5t154.5 34.5q194 0 295.5 -138.5t101.5 -391.5q0 -12 -7 -19.5t-18 -7.5h-620q4 -84 29.5 -150t64.5 -105.5t85 -60t97 -20.5q53 0 102.5 18t83 44.5t55.5 51t32 44.5q13 22 32 6l58 -55q11 -11 11 -22q0 -7 -5 -15 q-11 -18 -26.5 -39t-50 -54.5t-74.5 -58.5t-100.5 -44t-127.5 -19q-188 0 -313 141.5t-125 380.5zM250 602h477q-5 123 -63.5 200t-163.5 77q-96 0 -164.5 -72t-85.5 -205z" />
<glyph unicode="f" horiz-adv-x="638" d="M66 895v88q0 25 22 25h98v127q0 171 77 259.5t218 88.5q27 0 52.5 -5.5t43.5 -12t37 -18t27.5 -18t21.5 -17.5l13 -11q10 -10 10 -20q0 -8 -6 -15l-51 -63q-17 -17 -33 -5q-39 39 -98 39q-68 0 -105 -52t-37 -152v-125h226q22 0 22 -25v-88q0 -25 -22 -25h-226v-733h152 q22 0 22 -24v-88q0 -25 -22 -25h-418q-20 0 -20 25v88q0 24 20 24h96v733h-98q-22 0 -22 25z" />
<glyph unicode="g" horiz-adv-x="1071" d="M74 506q0 234 110 375t285 141q112 0 184 -59t101 -142h4l-2 162q0 25 22 25h223q21 0 21 -25v-88q0 -25 -21 -25h-92v-909q0 -147 -57.5 -248t-152 -146.5t-218.5 -45.5q-65 0 -122 12.5t-96 32t-65 37t-45 35.5t-20 18q-20 20 -6 37l55 76q11 17 33 2q2 -1 17.5 -16 t34.5 -28.5t48 -28.5t70.5 -24.5t89.5 -9.5q123 0 196.5 72.5t73.5 224.5v234q-29 -87 -99 -148t-179 -61q-178 0 -285.5 145t-107.5 375zM242 502q0 -167 72 -270t182 -103q107 0 179.5 102.5t72.5 272.5q0 174 -72 274.5t-180 100.5q-111 0 -182.5 -102.5t-71.5 -274.5z " />
<glyph unicode="h" horiz-adv-x="1050" d="M47 25v88q0 24 23 24h94v1196h-94q-23 0 -23 25v88q0 24 23 24h241q23 0 23 -24v-457q0 -69 -8 -125h4q86 158 264 158q141 0 221 -96.5t80 -259.5v-529h96q23 0 23 -24v-88q0 -25 -23 -25h-186q-41 0 -60.5 20t-19.5 66v539q0 249 -178 249q-34 0 -64.5 -10t-51.5 -25.5 t-38.5 -34.5t-28 -37.5t-17.5 -34.5t-10 -25l-3 -9v-561h88q22 0 22 -24v-88q0 -25 -22 -25h-352q-23 0 -23 25z" />
<glyph unicode="i" horiz-adv-x="518" d="M68 25v88q0 24 22 24h94v733h-94q-22 0 -22 25v88q0 25 22 25h242q22 0 22 -25v-846h88q23 0 23 -24v-88q0 -25 -23 -25h-352q-22 0 -22 25zM150 1315q0 51 33.5 87t82.5 36q47 0 81 -36t34 -87q0 -49 -34 -84t-81 -35q-49 0 -82.5 34.5t-33.5 84.5z" />
<glyph unicode="j" horiz-adv-x="473" d="M-156 -360l47 61q21 17 37 4q1 -1 5.5 -5t8.5 -7t11 -7.5t14 -8t15.5 -7t19 -5t21.5 -1.5q69 0 106 53t37 154v999h-96q-21 0 -21 25v88q0 25 21 25h243q23 0 23 -25v-1114q0 -171 -77.5 -259.5t-217.5 -88.5q-27 0 -52.5 5t-43 11.5t-36.5 18t-27 17.5t-21 17l-13 11 q-13 11 -13 22q0 8 9 17zM131 1315q0 51 34 87t81 36t81.5 -36t34.5 -87q0 -49 -34.5 -84t-81.5 -35t-81 35t-34 84z" />
<glyph unicode="k" horiz-adv-x="1046" d="M47 25v88q0 24 23 24h94v1196h-94q-23 0 -23 25v88q0 24 23 24h241q23 0 23 -24v-918l297 342h-64q-20 0 -20 25v88q0 25 20 25h355q22 0 22 -25v-88q0 -25 -22 -25h-91l-219 -237l297 -496h84q23 0 23 -24v-88q0 -11 -7 -18t-16 -7h-121q-57 0 -98 63l-278 463 l-162 -184v-205h88q22 0 22 -24v-88q0 -25 -22 -25h-352q-23 0 -23 25z" />
<glyph unicode="l" horiz-adv-x="514" d="M53 25v88q0 24 25 24h94v1196h-94q-25 0 -25 25v88q0 24 25 24h219q24 0 34.5 -12t10.5 -39v-1282h88q23 0 23 -24v-88q0 -25 -23 -25h-352q-25 0 -25 25z" />
<glyph unicode="m" horiz-adv-x="1611" d="M70 25v88q0 24 20 24h96v733h-96q-20 0 -20 25v88q0 25 20 25h195q29 0 40.5 -13t10.5 -49l-2 -102h6q8 18 17.5 35t33.5 45t53 48t75.5 35t101.5 15q92 0 159 -44.5t101 -125.5q87 170 278 170q141 0 219 -96t78 -260v-529h96q21 0 21 -24v-88q0 -25 -21 -25h-186 q-41 0 -60.5 20t-19.5 66v539q0 120 -44.5 187t-135.5 67q-34 0 -65 -11t-51 -26.5t-37.5 -37t-27 -38t-16.5 -33.5q9 -56 9 -82v-514h96q20 0 20 -24v-88q0 -25 -20 -25h-355q-22 0 -22 25v88q0 24 22 24h89v488q0 120 -44 187t-135 67q-27 0 -51.5 -6.5t-43 -17t-35 -24 t-28.5 -28.5t-21.5 -30.5t-15.5 -28.5t-10.5 -24t-5.5 -16l-2 -6v-561h78q23 0 23 -24v-88q0 -25 -23 -25h-344q-20 0 -20 25z" />
<glyph unicode="n" horiz-adv-x="1073" d="M70 25v88q0 24 20 24h96v733h-96q-20 0 -20 25v88q0 25 20 25h223q23 0 23 -25l-2 -139h6q8 18 17.5 35t33 45t51.5 48t74 35t100 15q141 0 221.5 -96.5t80.5 -259.5v-529h96q22 0 22 -24v-88q0 -25 -22 -25h-189q-39 0 -58 20t-19 66v539q0 120 -44 187t-135 67 q-46 0 -85 -18.5t-61.5 -44t-38.5 -53t-22 -44t-6 -19.5v-563h88q23 0 23 -24v-88q0 -25 -23 -25h-354q-20 0 -20 25z" />
<glyph unicode="o" horiz-adv-x="1034" d="M74 508q0 237 125 375.5t317 138.5q193 0 319 -140t126 -374q0 -237 -124 -379.5t-321 -142.5q-195 0 -318.5 142t-123.5 380zM246 506q0 -170 77.5 -273.5t192.5 -103.5q117 0 194.5 103.5t77.5 273.5q0 169 -79.5 271t-192.5 102q-112 0 -191 -102t-79 -271z" />
<glyph unicode="p" horiz-adv-x="1073" d="M45 -348q0 24 23 24h92v1194h-88q-10 0 -16.5 7t-6.5 18v88q0 25 23 25h223q22 0 22 -25l-2 -162h4q27 82 99.5 141.5t183.5 59.5q176 0 286.5 -141t110.5 -375q0 -230 -108 -375t-287 -145q-110 0 -180 58t-96 142h-6q6 -65 6 -94v-416h116q23 0 23 -24v-88 q0 -25 -23 -25h-376q-10 0 -16.5 6.5t-6.5 18.5v88zM326 487q0 -165 75 -261.5t177 -96.5q110 0 181.5 103t71.5 270q0 172 -71 274.5t-182 102.5q-105 0 -178.5 -100.5t-73.5 -291.5z" />
<glyph unicode="q" horiz-adv-x="1048" d="M74 506q0 235 110 375.5t287 140.5q111 0 183 -58.5t100 -140.5h4l-2 160q0 25 22 25h115q20 0 20 -25v-1307h93q22 0 22 -24v-88q0 -25 -22 -25h-375q-25 0 -25 25v88q0 24 25 24h117v426l4 93h-4q-29 -86 -99.5 -147.5t-179.5 -61.5q-179 0 -287 145t-108 375zM242 504 q0 -168 72.5 -271.5t183.5 -103.5q106 0 178 102.5t72 272.5q0 174 -71.5 274.5t-178.5 100.5q-111 0 -183.5 -102.5t-72.5 -272.5z" />
<glyph unicode="r" horiz-adv-x="759" d="M70 25v88q0 24 20 24h96v733h-96q-20 0 -20 25v88q0 25 20 25h223q23 0 23 -25v-256h6q1 6 4 16t15.5 40t29 57t47 59.5t67.5 56.5t92 40t118 16q22 0 22 -27v-108q0 -27 -22 -27h-45q-94 0 -167.5 -56t-110 -139.5t-36.5 -173.5v-344h88q23 0 23 -24v-88q0 -25 -23 -25 h-354q-20 0 -20 25z" />
<glyph unicode="s" horiz-adv-x="880" d="M76 27l2 307q0 26 22 26h93q24 0 24 -26v-41q2 -7 6.5 -18t23 -39t42.5 -50t67.5 -39.5t96.5 -17.5q86 0 130 35.5t44 101.5q0 39 -22.5 67.5t-58.5 45t-82.5 33.5t-95.5 31t-95.5 38t-82.5 54t-58.5 80.5t-22.5 115.5q0 134 83 212.5t216 78.5q169 0 247 -119h4 q-4 74 -4 76q0 12 7 19.5t18 7.5h74q11 0 17.5 -7.5t6.5 -19.5v-285q0 -12 -7.5 -19t-18.5 -7h-90q-11 0 -18 7t-7 19v29q0 22 -12 47t-35 50.5t-64.5 42t-93.5 16.5q-67 0 -111.5 -38t-44.5 -108q0 -41 23 -72t60 -48.5t85 -35t97.5 -31.5t97.5 -37.5t85 -52.5t60 -78.5 t23 -113.5q0 -56 -18.5 -104t-56 -88t-102.5 -63t-151 -23q-62 0 -115 17.5t-84.5 43.5t-49.5 47.5t-25 38.5h-2q2 -100 2 -106q0 -27 -25 -27h-80q-11 0 -17.5 7.5t-6.5 19.5z" />
<glyph unicode="t" horiz-adv-x="657" d="M37 897v84q0 12 7.5 19.5t18.5 7.5h97v206q0 29 24 29h119q11 0 19 -8.5t8 -20.5v-206h221q11 0 17.5 -7.5t6.5 -19.5v-84q0 -12 -6.5 -19.5t-17.5 -7.5h-221v-532q0 -103 36 -156t105 -53q53 0 94 41q18 18 35 -2l51 -64q6 -7 6 -16q0 -11 -10 -22q-1 -1 -10.5 -9 t-17 -14t-21 -15t-28 -15.5t-32.5 -13t-40 -10t-45 -3.5q-140 0 -216.5 88.5t-76.5 259.5v536h-97q-11 0 -18.5 7.5t-7.5 19.5z" />
<glyph unicode="u" horiz-adv-x="1052" d="M37 895v88q0 25 22 25h189q39 0 58.5 -20t19.5 -66v-539q0 -120 44.5 -187t135.5 -67q45 0 84 18t61.5 43t39 52.5t22.5 44.5t6 20v563h-90q-23 0 -23 25v88q0 25 23 25h235q23 0 23 -25v-846h94q25 0 25 -24v-88q0 -25 -25 -25h-166q-41 0 -59.5 20t-18.5 66v76h-6 q-67 -176 -268 -176q-141 0 -224 97t-83 259v528h-97q-22 0 -22 25z" />
<glyph unicode="v" horiz-adv-x="1038" d="M12 895v88q0 25 23 25h346q22 0 22 -25v-88q0 -25 -22 -25h-70l205 -690h4l213 690h-76q-22 0 -22 25v88q0 25 22 25h347q22 0 22 -25v-88q0 -25 -22 -25h-97l-268 -833q-8 -22 -16.5 -29.5t-28.5 -7.5h-156q-20 0 -28.5 7.5t-14.5 29.5l-268 833h-92q-23 0 -23 25z" />
<glyph unicode="w" horiz-adv-x="1441" d="M16 895v88q0 25 23 25h346q23 0 23 -25v-88q0 -25 -23 -25h-76l162 -690h4l146 690h-58q-22 0 -22 25v88q0 25 22 25h316q22 0 22 -25v-88q0 -25 -22 -25h-56l144 -690h2l161 690h-73q-25 0 -25 25v88q0 25 25 25h346q22 0 22 -25v-88q0 -25 -22 -25h-96l-226 -827 q-8 -23 -18 -33t-31 -10h-125q-23 0 -34.5 10t-14.5 33l-135 686h-4l-137 -686q-8 -43 -52 -43h-124q-21 0 -31.5 10t-18.5 33l-225 827h-92q-23 0 -23 25z" />
<glyph unicode="x" horiz-adv-x="1015" d="M53 25v88q0 24 23 24h69l263 369l-254 364h-78q-23 0 -23 25v88q0 25 23 25h346q22 0 22 -25v-88q0 -25 -22 -25h-78l188 -274l168 272h-61q-25 0 -25 25v88q0 25 25 25h301q23 0 23 -25v-88q0 -25 -23 -25h-72l-252 -372l252 -359h72q25 0 25 -24v-88q0 -25 -25 -25 h-344q-23 0 -23 25v88q0 24 23 24h78l-185 269l-174 -269h62q22 0 22 -24v-88q0 -25 -22 -25h-301q-23 0 -23 25z" />
<glyph unicode="y" horiz-adv-x="1019" d="M10 895v88q0 25 23 25h334q24 0 24 -25v-88q0 -25 -24 -25h-66l209 -694h2l199 694h-76q-23 0 -23 25v88q0 25 23 25h346q23 0 23 -25v-88q0 -25 -23 -25h-96l-305 -1001q-24 -74 -43 -121t-45.5 -94.5t-55.5 -73.5t-69 -42.5t-91 -16.5q-23 0 -45 3.5t-40 10t-32.5 13 t-28 15.5t-21 15t-17 14t-10.5 9q-17 20 -6 37l55 65q16 16 33 2q1 -1 6.5 -6t10 -8.5t13.5 -9t18 -9t21.5 -6t26.5 -2.5q61 0 95.5 46.5t66.5 160.5l43 152h-29q-20 0 -31 11.5t-20 39.5l-258 796h-94q-9 0 -16 7t-7 18z" />
<glyph unicode="z" horiz-adv-x="960" d="M86 25v84q0 18 4.5 31.5t9.5 19.5t17 18l545 692h-437v-157q0 -25 -22 -25h-94q-9 0 -16 7t-7 18v270q0 25 23 25h743q22 0 22 -25v-72q0 -41 -30 -65l-551 -709h444v162q0 25 21 25h94q22 0 22 -25v-274q0 -25 -22 -25h-743q-23 0 -23 25z" />
<glyph unicode="{" horiz-adv-x="616" d="M55 682v63q0 27 23 27q38 2 80.5 67.5t42.5 170.5v233q0 90 25.5 155t71.5 100.5t101.5 52t124.5 16.5q11 0 19 -7.5t8 -19.5v-106q0 -12 -8 -19.5t-19 -7.5q-79 0 -115 -42t-36 -136v-217q0 -51 -11.5 -97t-28.5 -75t-33.5 -51t-27.5 -31l-12 -10v-70q5 -3 12.5 -9.5 t27 -30t34.5 -51.5t27 -74t12 -97v-230q0 -94 36 -134t115 -40q11 0 19 -7t8 -19v-107q0 -12 -8 -19t-19 -7q-323 0 -323 319v246q0 104 -43 169.5t-80 65.5q-10 0 -16.5 8.5t-6.5 20.5z" />
<glyph unicode="|" horiz-adv-x="509" d="M168 -244v1776q0 24 25 24h124q23 0 23 -24v-1776q0 -24 -23 -24h-124q-25 0 -25 24z" />
<glyph unicode="}" horiz-adv-x="616" d="M66 -14q0 26 26 26q79 0 115.5 40t36.5 134v230q0 51 11.5 96.5t28 74.5t33 50.5t27.5 30.5l12 10v70q-5 3 -12.5 10t-26.5 31t-34 51.5t-27 74t-12 97.5v217q0 94 -36.5 136t-115.5 42q-26 0 -26 27v106q0 27 26 27q69 0 124.5 -16.5t102 -52t72 -100.5t25.5 -155v-233 q0 -104 43 -170t78 -68q26 0 26 -27v-63q0 -12 -7 -20.5t-19 -8.5q-34 0 -77.5 -66t-43.5 -169v-246q0 -319 -324 -319q-26 0 -26 26v107z" />
<glyph unicode="&#xa1;" horiz-adv-x="475" d="M135 1001q0 45 31 77t74 32q44 0 74 -31.5t30 -77.5t-30 -77t-74 -31q-43 0 -74 31.5t-31 76.5zM152 -522l18 1204q0 25 23 25h96q22 0 22 -25l19 -1204q0 -25 -25 -25h-131q-22 0 -22 25z" />
<glyph unicode="&#xa2;" horiz-adv-x="1034" d="M90 625q0 215 104.5 350t256.5 158v145q0 25 22 25h88q25 0 25 -25v-150q76 -13 126.5 -52.5t73.5 -90.5h5l-5 115q-3 24 21 24h82q24 0 24 -24v-348q0 -25 -24 -25h-98q-21 0 -21 25v34q-2 72 -68.5 139.5t-166.5 67.5q-48 0 -95.5 -24t-87.5 -68.5t-65 -117t-25 -160.5 q0 -174 83.5 -275.5t195.5 -101.5q52 0 100.5 18t82 44t55.5 52t30 46q14 22 33 6l61 -60q16 -13 6 -37q-7 -16 -22 -37t-43.5 -50t-63.5 -53.5t-86.5 -44.5t-107.5 -26v-106q0 -25 -25 -25h-88q-22 0 -22 25v111q-158 24 -259.5 161.5t-101.5 354.5z" />
<glyph unicode="&#xa3;" horiz-adv-x="1130" d="M76 543v75q0 27 22 27h199q-12 27 -40 83t-44 92t-30.5 92.5t-14.5 111.5q0 212 121.5 335.5t335.5 123.5q188 0 298.5 -113t110.5 -309v-33q0 -24 -22 -24h-133q-23 0 -23 24v35q0 112 -63.5 186t-167.5 74q-116 0 -192.5 -77t-76.5 -234q0 -62 21.5 -122.5t59 -133 t52.5 -111.5h359q20 0 20 -27v-75q0 -25 -20 -25h-330v-20q0 -101 -44.5 -193t-106.5 -151h651q22 0 22 -25v-104q0 -25 -22 -25h-879q-22 0 -22 25v98q0 30 18 45q4 4 34 27.5t54 47t52 59t44.5 82.5t16.5 99q0 5 -1 17t-1 18h-236q-22 0 -22 25z" />
<glyph unicode="&#xa4;" horiz-adv-x="1132" d="M123 713q0 230 123 372l-119 152q-13 20 4 37l16 16q17 20 35 -2l119 -149q111 88 264 88q149 0 264 -92l119 153q18 22 35 2l18 -16q18 -18 3 -37l-119 -154q123 -142 123 -370q0 -237 -125 -381l121 -152q16 -20 -3 -39l-18 -16q-17 -20 -35 2l-119 154 q-114 -91 -264 -91q-152 0 -266 91l-117 -154q-18 -22 -35 -2l-16 16q-18 18 -4 39l119 154q-123 142 -123 379zM293 711q0 -169 78 -273t194 -104q115 0 193 104t78 273t-79.5 270.5t-191.5 101.5t-192 -102t-80 -270z" />
<glyph unicode="&#xa5;" horiz-adv-x="1298" d="M51 1346v100q0 24 23 24h428q24 0 24 -24v-100q0 -25 -24 -25h-109l256 -576h8l252 576h-116q-21 0 -21 25v100q0 24 21 24h428q24 0 24 -24v-100q0 -25 -24 -25h-119l-240 -475h164q23 0 23 -27v-65q0 -27 -23 -27h-223l-70 -139v-29h217q23 0 23 -27v-65q0 -27 -23 -27 h-217v-290h135q23 0 23 -25v-100q0 -11 -6.5 -18t-16.5 -7h-444q-23 0 -23 25v100q0 25 23 25h135v290h-215q-11 0 -18 7.5t-7 19.5v65q0 27 25 27h215v29l-70 139h-221q-22 0 -22 27v65q0 27 22 27h162l-237 475h-119q-23 0 -23 25z" />
<glyph unicode="&#xa6;" horiz-adv-x="514" d="M172 -244v668q0 25 23 25h124q25 0 25 -25v-668q0 -24 -25 -24h-124q-23 0 -23 24zM172 864v668q0 24 23 24h124q25 0 25 -24v-668q0 -24 -25 -24h-124q-23 0 -23 24z" />
<glyph unicode="&#xa7;" horiz-adv-x="1202" d="M98 37q0 24 23 24h131q22 0 22 -24v-29q0 -13 10.5 -45.5t37.5 -80t66 -89.5t104 -72t143 -30q130 0 203 64t73 179q0 55 -26.5 97t-71.5 68.5t-103.5 48t-123 41t-129 41.5t-123 55t-103.5 76.5t-71.5 110.5t-26.5 153q0 130 72 227q-72 91 -72 233q0 172 112.5 285 t301.5 113q230 0 340 -162l-2 127q-3 25 20 25h117q22 0 22 -25v-442q0 -27 -22 -27h-133q-9 0 -15 7.5t-6 19.5v57q0 26 -9.5 58t-33 67t-56.5 63.5t-86 47t-116 18.5q-112 0 -178.5 -65.5t-66.5 -166.5q0 -56 27 -98.5t72 -70.5t104 -50.5t124 -42.5t130 -42t124 -54 t104 -74t72 -106t27 -146q0 -139 -70 -243q70 -90 70 -217q0 -85 -25.5 -158.5t-77 -132t-137.5 -92t-198 -33.5q-87 0 -161.5 26t-123 67.5t-78.5 80t-47 76.5l2 -211q0 -25 -24 -25h-115q-23 0 -23 25v473zM317 625q0 -65 35.5 -112t100 -77.5t131.5 -52t156 -51 t147 -58.5q28 51 28 121q0 64 -35 109.5t-99.5 75t-131.5 50t-154.5 49.5t-146.5 60q-31 -54 -31 -114z" />
<glyph unicode="&#xa8;" horiz-adv-x="567" d="M47 1225q0 38 24.5 65t61.5 27q35 0 60.5 -27t25.5 -65t-25.5 -65t-60.5 -27q-37 0 -61.5 27t-24.5 65zM348 1225q0 38 24.5 65t61.5 27q36 0 62 -27t26 -65t-26 -65t-62 -27q-37 0 -61.5 27t-24.5 65z" />
<glyph unicode="&#xa9;" horiz-adv-x="1241" d="M98 713q0 121 42 233.5t112.5 194.5t167 131t201.5 49q139 0 259.5 -82.5t191.5 -223t71 -302.5t-71 -302.5t-191.5 -223.5t-259.5 -83q-140 0 -261 83t-191.5 223.5t-70.5 302.5zM201 713q0 -136 56 -251t152.5 -182t211.5 -67q173 0 297 146.5t124 353.5 q0 102 -33.5 194.5t-90 159t-134.5 106t-163 39.5q-115 0 -211.5 -66.5t-152.5 -181.5t-56 -251zM326 719q0 165 84 262.5t206 97.5q55 0 101.5 -18.5t75.5 -47.5t44.5 -50.5t24.5 -42.5q6 -12 -4 -25l-59 -41q-13 -10 -21 4q-46 107 -162 107q-73 0 -124.5 -63t-51.5 -181 q0 -119 52.5 -183.5t128.5 -64.5q116 0 157 100q10 17 21 7l57 -37q13 -13 4 -25q-6 -15 -16 -32t-31.5 -41t-47 -42.5t-65 -31.5t-84.5 -13q-122 0 -206 98t-84 263z" />
<glyph unicode="&#xaa;" horiz-adv-x="628" d="M88 1118q0 73 51 111.5t148 38.5h96v6q0 63 -20 93t-78 30q-22 0 -42.5 -4.5t-33.5 -10.5t-22.5 -12.5t-14.5 -11t-6 -4.5q-9 -5 -12 4l-33 43q-7 11 0 14q2 3 6 7.5t19.5 16t33 20.5t47 16.5t62.5 7.5q186 0 186 -213v-217h49q11 0 11 -11v-57q0 -12 -11 -12h-90 q-21 0 -31 9.5t-10 33.5v26h-2q-54 -77 -151 -77q-66 0 -109 40.5t-43 112.5zM186 1128q0 -36 22.5 -57.5t59.5 -21.5q73 0 115 65v88l-90 2q-107 3 -107 -76z" />
<glyph unicode="&#xab;" horiz-adv-x="999" d="M78 483v45q0 23 24 43l396 314q24 14 24 -11v-90q0 -28 -24 -45l-277 -235l277 -234q24 -21 24 -45v-90q0 -13 -8 -15.5t-16 5.5l-396 311q-24 21 -24 47zM444 483v45q0 24 23 43l397 314q6 6 14.5 4t8.5 -15v-90q0 -26 -23 -45l-278 -235l278 -234q23 -23 23 -45v-90 q0 -13 -7.5 -15.5t-15.5 5.5l-397 311q-23 20 -23 47z" />
<glyph unicode="&#xac;" horiz-adv-x="1122" d="M117 690v88q0 12 6.5 19.5t17.5 7.5h826q11 0 17.5 -7.5t6.5 -19.5v-465q0 -24 -22 -24h-99q-22 0 -22 24v351h-707q-24 0 -24 26z" />
<glyph unicode="&#xad;" horiz-adv-x="843" d="M119 481v105q0 12 7.5 19t18.5 7h555q11 0 18 -7t7 -19v-105q0 -12 -7 -19t-18 -7h-555q-11 0 -18.5 7t-7.5 19z" />
<glyph unicode="&#xae;" horiz-adv-x="1241" d="M98 713q0 121 42 233.5t112.5 194.5t167 131t201.5 49q139 0 259.5 -82.5t191.5 -223t71 -302.5t-71 -302.5t-191.5 -223.5t-259.5 -83q-140 0 -261 83t-191.5 223.5t-70.5 302.5zM190 713q0 -138 57.5 -255t157 -185t216.5 -68q178 0 303 148.5t125 359.5t-125 359.5 t-303 148.5q-117 0 -216.5 -68t-157 -185t-57.5 -255zM377 379v72q0 10 8 10h51v522h-51q-8 0 -8 12v72q0 10 8 10h260q91 0 146 -53.5t55 -157.5q0 -76 -31.5 -125.5t-89.5 -68.5q11 -16 29 -62l61 -147h59q9 0 9 -10v-74q0 -12 -9 -12h-88q-16 0 -25 11t-18 34l-90 202 q-11 25 -20 35t-23 10h-80v-198h62q12 0 12 -10v-72q0 -12 -12 -12h-207q-8 0 -8 12zM530 748h109q109 0 109 116q0 58 -28.5 88.5t-80.5 30.5h-109v-235z" />
<glyph unicode="&#xaf;" horiz-adv-x="696" d="M59 1161v86q0 29 25 29h530q10 0 17.5 -8.5t7.5 -20.5v-86q0 -12 -7 -19t-18 -7h-530q-25 0 -25 26z" />
<glyph unicode="&#xb0;" horiz-adv-x="464" d="M104 1016q0 65 37 109t90 44q54 0 91.5 -43.5t37.5 -109.5q0 -76 -36.5 -117t-92.5 -41q-53 0 -90 41.5t-37 116.5zM176 1016q0 -37 16.5 -58.5t38.5 -21.5q25 0 42.5 21t17.5 59q0 33 -18 54.5t-42 21.5q-22 0 -38.5 -21.5t-16.5 -54.5z" />
<glyph unicode="&#xb1;" horiz-adv-x="966" d="M115 92v103q0 28 24 28h688q11 0 18 -8t7 -20v-103q0 -12 -7 -19t-18 -7h-688q-24 0 -24 26zM115 707v102q0 29 24 29h264v333q0 25 23 25h123q22 0 22 -25v-333h256q10 0 17.5 -8.5t7.5 -20.5v-102q0 -12 -7.5 -20.5t-17.5 -8.5h-256v-322q0 -26 -22 -26h-123 q-23 0 -23 26v322h-264q-24 0 -24 29z" />
<glyph unicode="&#xb2;" horiz-adv-x="700" d="M113 760v45q1 61 20.5 108.5t50.5 76.5t68 52.5t73.5 43.5t67 41.5t49.5 54t19 75.5q0 57 -30 89t-81 32q-62 0 -95.5 -33t-33.5 -94q0 -16 -10 -16h-80q-12 0 -12 16q0 95 58.5 163.5t172.5 68.5q107 0 166 -63t59 -156q0 -55 -18.5 -99.5t-49 -73.5t-67 -52.5t-74 -44 t-69.5 -41.5t-54 -50t-26 -65h268v73q0 17 15 17h71q15 0 15 -17v-151q0 -19 -17 -19h-440q-16 0 -16 19z" />
<glyph unicode="&#xb3;" horiz-adv-x="645" d="M86 862q0 4 4 8l53 50q4 4 9 4q4 0 8 -4q17 -20 24.5 -27.5t28 -24t44.5 -23.5t54 -7q127 0 127 118q0 59 -32.5 91t-94.5 32h-35q-12 0 -12 15v59q0 14 12 14h27q44 0 79.5 27t35.5 84q0 46 -27 73t-78 27q-48 0 -72 -26t-24 -66q0 -16 -12 -16h-78q-12 0 -12 16 q0 89 53.5 143t144.5 54q107 0 161 -60t54 -135q0 -39 -13.5 -71t-33.5 -50.5t-32.5 -27t-20.5 -11.5q92 -31 113 -129q6 -25 6 -55q0 -94 -65 -151.5t-171 -57.5q-24 0 -46 3.5t-40 9.5t-33.5 13.5t-28.5 17.5t-23 18t-19 18.5t-14 16t-10.5 13.5t-6.5 9q-4 4 -4 8z" />
<glyph unicode="&#xb4;" horiz-adv-x="530" d="M66 1237q-18 22 2 39l292 289q19 19 37 -2l68 -78q11 -21 -4 -39l-307 -275q-20 -14 -35 7z" />
<glyph unicode="&#xb5;" horiz-adv-x="1064" d="M47 895v88q0 11 6.5 18t16.5 7h188q39 0 58.5 -20t19.5 -66v-539q0 -120 44.5 -187t135.5 -67q45 0 84 18t61.5 43t39 52.5t22.5 44.5t6 20v563h-90q-23 0 -23 25v88q0 25 23 25h235q23 0 23 -25v-846h94q25 0 25 -24v-88q0 -25 -25 -25h-166q-40 0 -58.5 19.5 t-18.5 66.5v76h-7q-67 -176 -268 -176q-72 0 -137 30v-452q0 -25 -23 -25h-123q-22 0 -22 25v731q-2 14 -2 47v528h-96q-23 0 -23 25z" />
<glyph unicode="&#xb6;" horiz-adv-x="1251" d="M61 969q0 243 114.5 372t299.5 129h641q23 0 23 -24v-105q0 -24 -23 -24h-72v-1452q0 -25 -22 -25h-133q-23 0 -23 25v1452h-125v-1452q0 -25 -22 -25h-133q-23 0 -23 25v618h-71q-198 0 -314.5 121.5t-116.5 364.5z" />
<glyph unicode="&#xb7;" horiz-adv-x="411" d="M117 594q0 40 26 68t64 28q37 0 63.5 -28t26.5 -68q0 -41 -26.5 -68.5t-63.5 -27.5q-38 0 -64 27.5t-26 68.5z" />
<glyph unicode="&#xb8;" horiz-adv-x="419" d="M63 -240l21 45q4 11 14.5 12t16.5 -5q45 -27 80 -27q57 0 57 47q0 24 -17.5 33.5t-56.5 9.5q-26 0 -34.5 8.5t-2.5 26.5l37 127l94 -2l-26 -86q9 0 17 -0.5t28.5 -6.5t34 -17t25 -34.5t11.5 -56.5q0 -70 -42.5 -111.5t-114.5 -41.5q-76 0 -135 47q-16 10 -7 32z" />
<glyph unicode="&#xb9;" horiz-adv-x="589" d="M94 1298q-7 10 4 21l172 151q7 7 23 7h78q14 0 14 -19l2 -618h107q16 0 16 -19v-59q0 -21 -16 -21h-347q-16 0 -16 21v59q0 19 16 19h127v512l-120 -113q-12 -8 -19 2z" />
<glyph unicode="&#xba;" horiz-adv-x="593" d="M84 1227q0 118 62 187t151 69t150 -69.5t61 -186.5t-61 -189.5t-150 -72.5t-151 72t-62 190zM168 1225q0 -81 37.5 -127.5t91.5 -46.5t90.5 45.5t36.5 128.5q0 81 -38 127.5t-89 46.5t-90 -47t-39 -127z" />
<glyph unicode="&#xbb;" horiz-adv-x="999" d="M113 135v90q0 24 24 45l277 234l-277 235q-24 17 -24 45v90q0 13 7.5 16t16.5 -5l393 -314q27 -19 27 -43v-45q0 -24 -27 -47l-393 -311q-24 -12 -24 10zM477 135v90q0 20 25 45l276 234l-276 235q-25 21 -25 45v90q0 13 8 16t17 -5l395 -314q25 -18 25 -43v-45 q0 -26 -25 -47l-395 -311q-25 -15 -25 10z" />
<glyph unicode="&#xbc;" horiz-adv-x="1181" d="M37 1298q-7 10 4 21l172 151q11 7 23 7h77q15 0 15 -19v-618h108q17 0 17 -19v-59q0 -21 -17 -21h-346q-16 0 -16 21v59q0 19 16 19h127v512l-121 -113q-11 -7 -18 2zM295 -127l424 1659q3 24 29 24h90q22 0 16 -24l-424 -1659q-6 -25 -27 -25h-92q-25 0 -16 25zM649 246 v61q0 12 15 33l274 373q13 22 29 22h84q12 0 12 -12v-397h65q13 0 13 -13v-67q0 -13 -13 -13h-65v-135h57q10 0 10 -12v-72q0 -14 -10 -14h-272q-12 0 -12 14v72q0 12 12 12h104v135h-290q-13 0 -13 13zM758 317h194v275z" />
<glyph unicode="&#xbd;" horiz-adv-x="1263" d="M94 1298q-7 10 4 21l172 151q7 7 23 7h78q14 0 14 -19v-618h109q16 0 16 -19v-59q0 -21 -16 -21h-347q-16 0 -16 21v59q0 19 16 19h127v512l-120 -113q-12 -8 -19 2zM322 -127l421 1659q6 24 29 24h92q23 0 17 -24l-424 -1659q-6 -25 -29 -25h-90q-25 0 -16 25zM719 20 v46q1 61 20.5 108.5t50.5 76.5t68 52.5t73.5 43.5t67 41.5t49.5 54t19 75.5q0 57 -30 89t-81 32q-62 0 -95.5 -33t-33.5 -94q0 -16 -10 -16h-80q-12 0 -12 16q0 95 58.5 163t172.5 68q108 0 167 -63t59 -156q0 -55 -18.5 -99.5t-49 -73.5t-67.5 -52.5t-74.5 -44t-69.5 -41.5 t-54 -50t-26 -65h269v74q0 16 14 16h72q14 0 14 -16v-152q0 -18 -16 -18h-441q-16 0 -16 18z" />
<glyph unicode="&#xbe;" horiz-adv-x="1255" d="M27 862q0 4 4 8l53 50q4 4 8 4t8 -4q16 -19 24.5 -27t28.5 -24t44.5 -23.5t54.5 -7.5q127 0 127 118q0 59 -32.5 91t-94.5 32h-35q-12 0 -12 15v59q0 14 12 14h27q44 0 79 27t35 84q0 46 -26.5 73t-77.5 27q-48 0 -72 -26t-24 -66q0 -16 -13 -16h-77q-13 0 -13 16 q0 89 54 143t145 54q107 0 161 -60t54 -135q0 -39 -13.5 -71t-33.5 -50.5t-32.5 -27t-20.5 -11.5q10 -3 15.5 -5t27.5 -16.5t36 -32.5t26.5 -52.5t12.5 -77.5q0 -94 -64.5 -151.5t-170.5 -57.5q-24 0 -46 3.5t-40 9.5t-33.5 13.5t-28.5 17.5t-23 18t-19 18.5t-14 16 t-10.5 13.5t-6.5 9q-4 4 -4 8zM365 -127l423 1659q9 24 31 24h90q26 0 17 -24l-424 -1659q-6 -25 -29 -25h-92q-19 0 -16 25zM721 246v61q0 17 14 33l275 373q13 22 30 22h82q13 0 13 -12v-397h65q12 0 12 -13v-67q0 -13 -12 -13h-65v-135h57q10 0 10 -12v-72q0 -14 -10 -14 h-272q-11 0 -11 14v72q0 12 11 12h106v135h-293q-12 0 -12 13zM829 317h197v275z" />
<glyph unicode="&#xbf;" horiz-adv-x="933" d="M57 -139q0 78 21 143t54 111.5t73 89t80.5 85t73.5 88.5t54 111t21 142q0 24 23 24h125q22 0 22 -24q0 -95 -20 -174.5t-52 -134t-70.5 -101.5t-77 -86t-70.5 -77.5t-52 -87t-20 -103.5q0 -119 59 -192.5t162 -73.5q85 0 140 46.5t78 120t24 173.5q0 24 22 24h131 q23 0 23 -24q0 -78 -12.5 -147.5t-43 -136t-77 -114t-119.5 -76t-166 -28.5q-192 0 -299 119.5t-107 302.5zM399 913q0 47 33.5 81t79.5 34q47 0 80 -34t33 -81t-33 -80.5t-80 -33.5q-46 0 -79.5 33.5t-33.5 80.5z" />
<glyph unicode="&#xc0;" horiz-adv-x="1271" d="M-8 25v100q0 25 22 25h119l365 1171h-105q-22 0 -22 25v100q0 24 22 24h264q44 0 67.5 -20t43.5 -68l391 -1232h117q24 0 24 -25v-100q0 -25 -24 -25h-414q-24 0 -24 25v100q0 25 24 25h119l-98 348h-475l-101 -348h121q25 0 25 -25v-100q0 -25 -25 -25h-414 q-22 0 -22 25zM397 1950l70 75q6 9 16.5 10.5t18.5 -5.5l293 -291q19 -16 4 -39l-54 -60q-17 -20 -36 -4l-308 275q-15 15 -4 39zM461 647h368l-180 617h-12z" />
<glyph unicode="&#xc1;" horiz-adv-x="1271" d="M-8 25v100q0 25 22 25h119l365 1171h-105q-22 0 -22 25v100q0 24 22 24h264q44 0 67.5 -20t43.5 -68l391 -1232h117q24 0 24 -25v-100q0 -25 -24 -25h-414q-24 0 -24 25v100q0 25 24 25h119l-98 348h-475l-101 -348h121q25 0 25 -25v-100q0 -25 -25 -25h-414 q-22 0 -22 25zM461 647h368l-180 617h-12zM553 1700q-18 22 2 39l293 289q19 19 37 -3l67 -77q11 -21 -4 -39l-307 -275q-21 -14 -35 6z" />
<glyph unicode="&#xc2;" horiz-adv-x="1271" d="M-8 25v100q0 25 22 25h119l365 1171h-105q-22 0 -22 25v100q0 24 22 24h264q44 0 67.5 -20t43.5 -68l391 -1232h117q24 0 24 -25v-100q0 -25 -24 -25h-414q-24 0 -24 25v100q0 25 24 25h119l-98 348h-475l-101 -348h121q25 0 25 -25v-100q0 -25 -25 -25h-414 q-22 0 -22 25zM338 1700q-15 23 4 39l281 278q5 8 16 8t18 -10l279 -276q18 -18 4 -39l-53 -60q-14 -21 -35 -4l-213 215l-213 -215q-19 -16 -35 4zM461 647h368l-180 617h-12z" />
<glyph unicode="&#xc3;" horiz-adv-x="1271" d="M-8 25v100q0 25 22 25h119l365 1171h-105q-22 0 -22 25v100q0 24 22 24h264q44 0 67.5 -20t43.5 -68l391 -1232h117q24 0 24 -25v-100q0 -25 -24 -25h-414q-24 0 -24 25v100q0 25 24 25h119l-98 348h-475l-101 -348h121q25 0 25 -25v-100q0 -25 -25 -25h-414 q-22 0 -22 25zM342 1610q0 108 41 166.5t123 58.5q43 0 80.5 -15t60 -33t51.5 -33.5t56 -16.5q31 0 44 24.5t13 87.5q0 25 23 25h71q21 0 21 -25q0 -241 -166 -241q-46 0 -84 15.5t-60 33.5t-49.5 33.5t-54.5 15.5q-29 0 -43 -21t-14 -75q0 -25 -21 -25h-72q-20 0 -20 25z M461 647h368l-180 617h-12z" />
<glyph unicode="&#xc4;" horiz-adv-x="1271" d="M-8 25v100q0 25 22 25h119l365 1171h-105q-22 0 -22 25v100q0 24 22 24h264q44 0 67.5 -20t43.5 -68l391 -1232h117q24 0 24 -25v-100q0 -25 -24 -25h-414q-24 0 -24 25v100q0 25 24 25h119l-98 348h-475l-101 -348h121q25 0 25 -25v-100q0 -25 -25 -25h-414 q-22 0 -22 25zM403 1688q0 38 24.5 65t61.5 27q35 0 60.5 -27t25.5 -65t-25.5 -65.5t-60.5 -27.5q-36 0 -61 27t-25 66zM461 647h368l-180 617h-12zM705 1688q0 38 24.5 65t61.5 27q36 0 62 -27t26 -65t-26.5 -65.5t-61.5 -27.5q-36 0 -61 27t-25 66z" />
<glyph unicode="&#xc5;" horiz-adv-x="1271" d="M-8 25v100q0 25 22 25h119l365 1171h-105q-22 0 -22 25v100q0 24 22 24h264q44 0 67.5 -20t43.5 -68l391 -1232h117q24 0 24 -25v-100q0 -25 -24 -25h-414q-24 0 -24 25v100q0 25 24 25h119l-98 348h-475l-101 -348h121q25 0 25 -25v-100q0 -25 -25 -25h-414 q-22 0 -22 25zM461 647h368l-180 617h-12zM483 1757q0 74 42.5 121t107.5 47t106 -46.5t41 -121.5t-41 -122.5t-106 -47.5t-107.5 47.5t-42.5 122.5zM586 1757q0 -67 47 -67t47 67q0 68 -47 68t-47 -68z" />
<glyph unicode="&#xc6;" horiz-adv-x="1759" d="M-18 25v100q0 25 22 25h119l403 1171h-102q-10 0 -16.5 6.5t-6.5 18.5v100q0 24 23 24h1218q23 0 23 -24v-328q0 -24 -23 -24h-114q-23 0 -23 24v203h-499v-512h417q23 0 23 -25v-100q0 -25 -23 -25h-417v-509h499v200q0 25 23 25h114q23 0 23 -25v-325q0 -25 -23 -25 h-944q-22 0 -22 25v100q0 25 22 25h133v509h-364l-170 -509h123q22 0 22 -25v-100q0 -25 -22 -25h-416q-22 0 -22 25zM528 809h303v512h-131z" />
<glyph unicode="&#xc7;" horiz-adv-x="1323" d="M86 743q0 170 49 312t131.5 234t189.5 143t224 51q79 0 146 -21t112.5 -56.5t74.5 -69.5t50 -72l-2 182q0 24 22 24h117q21 0 21 -24v-447q0 -26 -21 -26h-131q-11 0 -18 7t-7 19v19q0 43 -26 94.5t-70 98.5t-113 78.5t-145 31.5q-80 0 -153.5 -36.5t-134 -106.5 t-96.5 -184t-36 -257q0 -142 37.5 -257t99 -186t137.5 -109t158 -38q75 0 140 20.5t108.5 49.5t79.5 68.5t55 69.5t33 61q11 24 31 12l92 -57q17 -15 4 -41q-10 -21 -19 -38t-33.5 -53.5t-51 -65.5t-70.5 -64t-93 -59t-117 -42t-144 -20l-10 -39q9 0 17 -0.5t28.5 -6.5 t34 -17t25 -34.5t11.5 -56.5q0 -70 -42.5 -111.5t-114.5 -41.5q-77 0 -136 47q-16 9 -6 32l21 45q4 11 14 12t16 -5q45 -27 80 -27q58 0 58 47q0 24 -17.5 33.5t-56.5 9.5q-26 0 -34.5 8.5t-2.5 26.5l23 80q-153 18 -274.5 113t-193 261.5t-71.5 378.5z" />
<glyph unicode="&#xc8;" horiz-adv-x="1173" d="M80 25v100q0 25 22 25h131v1171h-131q-22 0 -22 25v100q0 24 22 24h951q22 0 22 -24v-328q0 -24 -22 -24h-121q-23 0 -23 24v203h-501v-512h419q23 0 23 -25v-100q0 -25 -23 -25h-419v-509h499v200q0 25 25 25h121q22 0 22 -25v-325q0 -25 -22 -25h-951q-22 0 -22 25z M322 1950l69 75q6 9 16.5 10.5t18.5 -5.5l293 -291q19 -16 4 -39l-53 -60q-17 -20 -37 -4l-307 275q-14 15 -4 39z" />
<glyph unicode="&#xc9;" horiz-adv-x="1173" d="M80 25v100q0 25 22 25h131v1171h-131q-22 0 -22 25v100q0 24 22 24h951q22 0 22 -24v-328q0 -24 -22 -24h-121q-23 0 -23 24v203h-501v-512h419q23 0 23 -25v-100q0 -25 -23 -25h-419v-509h499v200q0 25 25 25h121q22 0 22 -25v-325q0 -25 -22 -25h-951q-22 0 -22 25z M410 1700q-18 22 2 39l293 289q18 18 36 -3l68 -77q11 -21 -4 -39l-307 -275q-21 -14 -35 6z" />
<glyph unicode="&#xca;" horiz-adv-x="1173" d="M80 25v100q0 25 22 25h131v1171h-131q-22 0 -22 25v100q0 24 22 24h951q22 0 22 -24v-328q0 -24 -22 -24h-121q-23 0 -23 24v203h-501v-512h419q23 0 23 -25v-100q0 -25 -23 -25h-419v-509h499v200q0 25 25 25h121q22 0 22 -25v-325q0 -25 -22 -25h-951q-22 0 -22 25z M238 1700q-15 23 4 39l280 278q5 8 17 8q11 0 18 -10l279 -276q18 -18 4 -39l-54 -60q-14 -21 -34 -4l-213 215l-213 -215q-19 -16 -35 4z" />
<glyph unicode="&#xcb;" horiz-adv-x="1173" d="M80 25v100q0 25 22 25h131v1171h-131q-22 0 -22 25v100q0 24 22 24h951q22 0 22 -24v-328q0 -24 -22 -24h-121q-23 0 -23 24v203h-501v-512h419q23 0 23 -25v-100q0 -25 -23 -25h-419v-509h499v200q0 25 25 25h121q22 0 22 -25v-325q0 -25 -22 -25h-951q-22 0 -22 25z M338 1688q0 38 24.5 65t61.5 27q35 0 60.5 -27t25.5 -65t-25.5 -65.5t-60.5 -27.5q-36 0 -61 27t-25 66zM639 1688q0 38 24.5 65t61.5 27q36 0 62 -27t26 -65t-26.5 -65.5t-61.5 -27.5q-36 0 -61 27t-25 66z" />
<glyph unicode="&#xcc;" horiz-adv-x="645" d="M25 1905l69 75q6 9 16.5 10.5t18.5 -5.5l293 -291q19 -16 4 -39l-53 -60q-17 -20 -37 -4l-307 275q-15 14 -4 39zM80 25v100q0 25 22 25h131v1171h-131q-22 0 -22 25v100q0 24 22 24h439q22 0 22 -24v-100q0 -25 -22 -25h-133v-1171h133q22 0 22 -25v-100q0 -25 -22 -25 h-439q-22 0 -22 25z" />
<glyph unicode="&#xcd;" horiz-adv-x="645" d="M80 25v100q0 25 22 25h131v1171h-131q-22 0 -22 25v100q0 24 22 24h439q22 0 22 -24v-100q0 -25 -22 -25h-133v-1171h133q22 0 22 -25v-100q0 -25 -22 -25h-439q-22 0 -22 25zM225 1651q-18 22 2 39l293 288q19 19 37 -2l68 -78q10 -21 -4 -38l-308 -275q-20 -13 -34 6z " />
<glyph unicode="&#xce;" horiz-adv-x="645" d="M27 1700q-15 23 4 39l280 278q5 8 17 8q10 0 18 -10l279 -276q18 -18 4 -39l-54 -60q-14 -21 -34 -4l-213 215l-213 -215q-19 -16 -35 4zM80 25v100q0 25 22 25h131v1171h-131q-22 0 -22 25v100q0 24 22 24h439q22 0 22 -24v-100q0 -25 -22 -25h-133v-1171h133 q22 0 22 -25v-100q0 -25 -22 -25h-439q-22 0 -22 25z" />
<glyph unicode="&#xcf;" horiz-adv-x="645" d="M80 25v100q0 25 22 25h131v1171h-131q-22 0 -22 25v100q0 24 22 24h439q22 0 22 -24v-100q0 -25 -22 -25h-133v-1171h133q22 0 22 -25v-100q0 -25 -22 -25h-439q-22 0 -22 25zM90 1688q0 38 24.5 65t61.5 27q35 0 60.5 -27t25.5 -65t-25.5 -65.5t-60.5 -27.5 q-36 0 -61 27t-25 66zM391 1688q0 38 24.5 65t61.5 27q36 0 62 -27t26 -65t-26.5 -65.5t-61.5 -27.5q-36 0 -61 27t-25 66z" />
<glyph unicode="&#xd0;" horiz-adv-x="1302" d="M80 25v100q0 25 22 25h131v514h-116q-11 0 -19 7t-8 19v86q0 13 8 21t19 8h116v516h-131q-22 0 -22 25v100q0 24 22 24h476q288 0 463.5 -196t175.5 -537t-164 -539t-435 -198h-516q-22 0 -22 25zM408 150h155q229 2 349 148.5t120 434.5q0 279 -121.5 433.5 t-355.5 154.5h-147v-516h251q23 0 23 -29v-86q0 -26 -23 -26h-251v-514z" />
<glyph unicode="&#xd1;" horiz-adv-x="1415" d="M80 25v100q0 25 22 25h131v1167h-131q-22 0 -22 24v105q0 24 22 24h252q25 0 45 -11.5t29.5 -23t24.5 -34.5l469 -914q25 -46 50 -99.5t38 -83.5l12 -30h4v1047h-133q-21 0 -21 25v100q0 24 21 24h438q25 0 25 -24v-100q0 -25 -25 -25h-131v-1296q0 -25 -22 -25h-107 q-36 0 -56.5 15t-39.5 48l-479 928q-21 41 -42 88t-32 74l-10 27h-4v-1030h133q22 0 22 -25v-100q0 -25 -22 -25h-439q-22 0 -22 25zM436 1610q0 108 41 166.5t123 58.5q43 0 80.5 -15t60 -33t51.5 -33.5t56 -16.5q31 0 44 24.5t13 87.5q0 25 23 25h71q21 0 21 -25 q0 -241 -166 -241q-46 0 -84 15.5t-60 33.5t-49.5 33.5t-54.5 15.5q-29 0 -43 -21t-14 -75q0 -25 -21 -25h-71q-21 0 -21 25z" />
<glyph unicode="&#xd2;" d="M84 743q0 170 51.5 312t137.5 234t196.5 143t230.5 51t231 -51t198 -143t138.5 -234t51.5 -312q0 -169 -47.5 -311.5t-130.5 -239.5t-197 -151.5t-244 -54.5q-129 0 -242 55.5t-195.5 153.5t-130.5 240t-48 308zM268 737q0 -139 37 -253.5t98 -186.5t137.5 -111 t159.5 -39t159.5 39t138 111t98.5 186.5t37 253.5q0 114 -25 211t-67.5 164.5t-98.5 115.5t-117.5 70.5t-124.5 22.5q-79 0 -154.5 -37t-138 -106.5t-101 -184.5t-38.5 -256zM434 1950l70 75q6 9 16.5 10.5t18.5 -5.5l292 -291q20 -17 5 -39l-54 -60q-17 -20 -37 -4 l-307 275q-14 15 -4 39z" />
<glyph unicode="&#xd3;" d="M84 743q0 170 51.5 312t137.5 234t196.5 143t230.5 51t231 -51t198 -143t138.5 -234t51.5 -312q0 -169 -47.5 -311.5t-130.5 -239.5t-197 -151.5t-244 -54.5q-129 0 -242 55.5t-195.5 153.5t-130.5 240t-48 308zM268 737q0 -139 37 -253.5t98 -186.5t137.5 -111 t159.5 -39t159.5 39t138 111t98.5 186.5t37 253.5q0 114 -25 211t-67.5 164.5t-98.5 115.5t-117.5 70.5t-124.5 22.5q-79 0 -154.5 -37t-138 -106.5t-101 -184.5t-38.5 -256zM496 1700q-18 22 2 39l293 289q18 18 36 -3l68 -77q11 -21 -4 -39l-307 -275q-21 -14 -35 6z" />
<glyph unicode="&#xd4;" d="M84 743q0 170 51.5 312t137.5 234t196.5 143t230.5 51t231 -51t198 -143t138.5 -234t51.5 -312q0 -169 -47.5 -311.5t-130.5 -239.5t-197 -151.5t-244 -54.5q-129 0 -242 55.5t-195.5 153.5t-130.5 240t-48 308zM268 737q0 -139 37 -253.5t98 -186.5t137.5 -111 t159.5 -39t159.5 39t138 111t98.5 186.5t37 253.5q0 114 -25 211t-67.5 164.5t-98.5 115.5t-117.5 70.5t-124.5 22.5q-79 0 -154.5 -37t-138 -106.5t-101 -184.5t-38.5 -256zM399 1700q-15 23 4 39l281 278q5 8 16 8q12 0 19 -10l278 -276q18 -18 4 -39l-53 -60 q-14 -21 -35 -4l-213 215l-213 -215q-18 -15 -34 4z" />
<glyph unicode="&#xd5;" d="M84 743q0 170 51.5 312t137.5 234t196.5 143t230.5 51t231 -51t198 -143t138.5 -234t51.5 -312q0 -169 -47.5 -311.5t-130.5 -239.5t-197 -151.5t-244 -54.5q-129 0 -242 55.5t-195.5 153.5t-130.5 240t-48 308zM268 737q0 -139 37 -253.5t98 -186.5t137.5 -111 t159.5 -39t159.5 39t138 111t98.5 186.5t37 253.5q0 114 -25 211t-67.5 164.5t-98.5 115.5t-117.5 70.5t-124.5 22.5q-79 0 -154.5 -37t-138 -106.5t-101 -184.5t-38.5 -256zM426 1610q0 108 41 166.5t123 58.5q43 0 80.5 -15t60 -33t51.5 -33.5t56 -16.5q31 0 44 24.5 t13 87.5q0 25 23 25h71q21 0 21 -25q0 -241 -166 -241q-46 0 -84 15.5t-60 33.5t-49.5 33.5t-54.5 15.5q-29 0 -43 -21t-14 -75q0 -25 -21 -25h-72q-20 0 -20 25z" />
<glyph unicode="&#xd6;" d="M84 743q0 170 51.5 312t137.5 234t196.5 143t230.5 51t231 -51t198 -143t138.5 -234t51.5 -312q0 -169 -47.5 -311.5t-130.5 -239.5t-197 -151.5t-244 -54.5q-129 0 -242 55.5t-195.5 153.5t-130.5 240t-48 308zM268 737q0 -139 37 -253.5t98 -186.5t137.5 -111 t159.5 -39t159.5 39t138 111t98.5 186.5t37 253.5q0 114 -25 211t-67.5 164.5t-98.5 115.5t-117.5 70.5t-124.5 22.5q-79 0 -154.5 -37t-138 -106.5t-101 -184.5t-38.5 -256zM465 1688q0 38 24.5 65t61.5 27q35 0 60.5 -27t25.5 -65t-25.5 -65.5t-60.5 -27.5q-36 0 -61 27 t-25 66zM766 1688q0 38 24.5 65t61.5 27q36 0 62 -27t26 -65t-26.5 -65.5t-61.5 -27.5q-36 0 -61 27t-25 66z" />
<glyph unicode="&#xd7;" horiz-adv-x="843" d="M127 356l190 226l-190 227q-14 17 4 31l90 75q18 14 31 -2l172 -204l172 204q13 16 31 2l90 -75q18 -14 4 -31l-191 -227l191 -226q13 -16 -4 -30l-90 -76q-18 -14 -31 2l-172 203l-172 -203q-13 -16 -31 -2l-90 76q-17 14 -4 30z" />
<glyph unicode="&#xd8;" d="M84 743q0 170 51.5 312t137.5 234t196.5 143t230.5 51q58 0 131 -17l29 111q6 25 29 25h76q23 0 14 -25l-39 -150q169 -79 274 -257.5t105 -426.5q0 -169 -47.5 -311.5t-130.5 -239.5t-197 -151.5t-244 -54.5q-67 0 -122 14l-21 -80q-7 -26 -29 -26h-75q-9 0 -14.5 7 t-2.5 19l29 117q-173 80 -277 267.5t-104 438.5zM272 737q0 -192 64.5 -327.5t171.5 -202.5l283 1100q-47 12 -91 12q-79 0 -153.5 -36.5t-137 -106t-100 -183.5t-37.5 -256zM618 160q36 -8 82 -8q83 0 159 38t137 109t97.5 185t36.5 253q0 190 -64 323t-169 200z" />
<glyph unicode="&#xd9;" horiz-adv-x="1345" d="M43 1346v100q0 24 20 24h439q22 0 22 -24v-100q0 -25 -22 -25h-131v-776q0 -89 15 -158t48.5 -124.5t94.5 -85.5t147 -30q152 0 225.5 103.5t73.5 281.5v789h-131q-25 0 -25 25v100q0 24 25 24h438q23 0 23 -24v-100q0 -25 -23 -25h-133v-770q0 -277 -124 -421t-349 -144 q-228 0 -354.5 144t-126.5 421v770h-132q-20 0 -20 25zM475 1950l70 75q6 9 16.5 10.5t18.5 -5.5l292 -291q20 -17 5 -39l-54 -60q-17 -20 -37 -4l-307 275q-15 15 -4 39z" />
<glyph unicode="&#xda;" horiz-adv-x="1345" d="M43 1346v100q0 24 20 24h439q22 0 22 -24v-100q0 -25 -22 -25h-131v-776q0 -89 15 -158t48.5 -124.5t94.5 -85.5t147 -30q152 0 225.5 103.5t73.5 281.5v789h-131q-25 0 -25 25v100q0 24 25 24h438q23 0 23 -24v-100q0 -25 -23 -25h-133v-770q0 -277 -124 -421t-349 -144 q-228 0 -354.5 144t-126.5 421v770h-132q-20 0 -20 25zM530 1700q-18 22 2 39l293 289q19 19 37 -3l68 -77q11 -21 -4 -39l-308 -275q-20 -13 -34 6z" />
<glyph unicode="&#xdb;" horiz-adv-x="1345" d="M43 1346v100q0 24 20 24h439q22 0 22 -24v-100q0 -25 -22 -25h-131v-776q0 -89 15 -158t48.5 -124.5t94.5 -85.5t147 -30q152 0 225.5 103.5t73.5 281.5v789h-131q-25 0 -25 25v100q0 24 25 24h438q23 0 23 -24v-100q0 -25 -23 -25h-133v-770q0 -277 -124 -421t-349 -144 q-228 0 -354.5 144t-126.5 421v770h-132q-20 0 -20 25zM373 1700q-15 23 4 39l280 278q5 8 17 8q10 0 18 -10l279 -276q18 -18 4 -39l-53 -60q-14 -21 -35 -4l-213 215l-213 -215q-19 -16 -35 4z" />
<glyph unicode="&#xdc;" horiz-adv-x="1345" d="M43 1346v100q0 24 20 24h439q22 0 22 -24v-100q0 -25 -22 -25h-131v-776q0 -89 15 -158t48.5 -124.5t94.5 -85.5t147 -30q152 0 225.5 103.5t73.5 281.5v789h-131q-25 0 -25 25v100q0 24 25 24h438q23 0 23 -24v-100q0 -25 -23 -25h-133v-770q0 -277 -124 -421t-349 -144 q-228 0 -354.5 144t-126.5 421v770h-132q-20 0 -20 25zM432 1688q0 38 24.5 65t61.5 27q35 0 60.5 -27t25.5 -65t-25.5 -65.5t-60.5 -27.5q-36 0 -61 27t-25 66zM733 1688q0 38 24.5 65t61.5 27q36 0 62 -27t26 -65t-26.5 -65.5t-61.5 -27.5q-36 0 -61 27t-25 66z" />
<glyph unicode="&#xdd;" horiz-adv-x="1163" d="M-14 1346v100q0 24 22 24h428q25 0 25 -24v-100q0 -25 -25 -25h-108l256 -576h8l252 576h-117q-20 0 -20 25v100q0 24 20 24h428q25 0 25 -24v-100q0 -25 -25 -25h-119l-368 -733v-438h135q22 0 22 -25v-100q0 -25 -22 -25h-445q-22 0 -22 25v100q0 25 22 25h136v438 l-367 733h-119q-22 0 -22 25zM383 1700q-18 22 2 39l293 289q19 19 37 -3l67 -77q11 -21 -4 -39l-307 -275q-21 -14 -35 6z" />
<glyph unicode="&#xde;" horiz-adv-x="1112" d="M88 25v92q0 24 21 24h118v1188h-112q-23 0 -23 25v92q0 24 23 24h256q24 0 24 -24v-250h236q194 0 311 -114.5t117 -325.5q0 -210 -115 -320t-334 -110h-223v-185h162q22 0 22 -24v-92q0 -25 -22 -25h-440q-21 0 -21 25zM389 467h238q254 0 254 289q0 149 -71 220 t-183 71h-238v-580z" />
<glyph unicode="&#xdf;" horiz-adv-x="1200" d="M47 25v92q0 24 23 24h98v846q0 228 114 362t285 134q156 0 239 -79t83 -196q0 -55 -16.5 -100.5t-41.5 -74t-54.5 -57.5t-54.5 -52t-41.5 -56.5t-16.5 -72.5q0 -48 27.5 -83t71.5 -57t97 -42t106.5 -46t97.5 -59.5t71.5 -91.5t27.5 -135q0 -132 -100.5 -219t-251.5 -87 q-47 0 -88.5 8.5t-73.5 25t-59 34.5t-47.5 43t-35.5 45.5t-26.5 46t-17.5 40t-12.5 33t-6.5 19.5q-10 23 13 35l71 33q23 10 31 -12q1 -1 10.5 -25t26 -53.5t41.5 -59.5t67 -50.5t93 -20.5q78 0 132 49t54 119q0 47 -20.5 82.5t-54 56t-76 40.5t-87 35t-87 39.5t-76 54 t-54 78.5t-20.5 113q0 60 21.5 108.5t52 79.5t60.5 60t51.5 67t21.5 83q0 62 -39.5 104.5t-118.5 42.5q-93 0 -156 -91t-63 -251v-846h70q22 0 22 -24v-92q0 -25 -22 -25h-338q-23 0 -23 25z" />
<glyph unicode="&#xe0;" horiz-adv-x="983" d="M61 279q0 157 120.5 235t344.5 78h144v26q0 139 -55.5 199t-157.5 60q-59 0 -109.5 -13.5t-75 -29t-48 -34t-27.5 -20.5q-16 -8 -27 6l-59 72q-12 17 4 33q51 48 93 71q109 60 257 60q375 0 375 -410v-475h94q22 0 22 -24v-88q0 -25 -22 -25h-168q-39 0 -57.5 20 t-18.5 66v104h-4q-109 -206 -315 -206q-141 0 -225.5 79t-84.5 216zM238 279q0 -67 41.5 -107.5t103.5 -40.5q162 0 287 184v140h-144q-144 0 -216 -39.5t-72 -136.5zM256 1487l70 76q6 9 16 10t18 -6l293 -291q19 -16 4 -39l-53 -59q-17 -20 -37 -4l-307 274q-14 14 -4 39z " />
<glyph unicode="&#xe1;" horiz-adv-x="983" d="M61 279q0 157 120.5 235t344.5 78h144v26q0 139 -55.5 199t-157.5 60q-59 0 -109.5 -13.5t-75 -29t-48 -34t-27.5 -20.5q-16 -8 -27 6l-59 72q-12 17 4 33q51 48 93 71q109 60 257 60q375 0 375 -410v-475h94q22 0 22 -24v-88q0 -25 -22 -25h-168q-39 0 -57.5 20 t-18.5 66v104h-4q-109 -206 -315 -206q-141 0 -225.5 79t-84.5 216zM238 279q0 -67 41.5 -107.5t103.5 -40.5q162 0 287 184v140h-144q-144 0 -216 -39.5t-72 -136.5zM336 1237q-18 22 2 39l293 289q19 19 37 -2l67 -78q11 -21 -4 -39l-307 -275q-20 -14 -35 7z" />
<glyph unicode="&#xe2;" horiz-adv-x="983" d="M61 279q0 157 120.5 235t344.5 78h144v26q0 139 -55.5 199t-157.5 60q-59 0 -109.5 -13.5t-75 -29t-48 -34t-27.5 -20.5q-16 -8 -27 6l-59 72q-12 17 4 33q51 48 93 71q109 60 257 60q375 0 375 -410v-475h94q22 0 22 -24v-88q0 -25 -22 -25h-168q-39 0 -57.5 20 t-18.5 66v104h-4q-109 -206 -315 -206q-141 0 -225.5 79t-84.5 216zM199 1237q-15 23 4 39l280 278q6 9 17 9q10 0 18 -11l279 -276q18 -18 4 -39l-53 -59q-14 -21 -35 -4l-213 215l-213 -215q-19 -16 -35 4zM238 279q0 -67 41.5 -107.5t103.5 -40.5q162 0 287 184v140h-144 q-144 0 -216 -39.5t-72 -136.5z" />
<glyph unicode="&#xe3;" horiz-adv-x="983" d="M61 279q0 157 120.5 235t344.5 78h144v26q0 139 -55.5 199t-157.5 60q-59 0 -109.5 -13.5t-75 -29t-48 -34t-27.5 -20.5q-16 -8 -27 6l-59 72q-12 17 4 33q51 48 93 71q109 60 257 60q375 0 375 -410v-475h94q22 0 22 -24v-88q0 -25 -22 -25h-168q-39 0 -57.5 20 t-18.5 66v104h-4q-109 -206 -315 -206q-141 0 -225.5 79t-84.5 216zM209 1147q0 108 41 166.5t123 58.5q43 0 80.5 -15t60 -33t51.5 -33.5t56 -16.5q31 0 44 24.5t13 87.5q0 25 22 25h72q21 0 21 -25q0 -241 -166 -241q-46 0 -84 15.5t-60 33.5t-49.5 33.5t-54.5 15.5 q-29 0 -43 -21t-14 -75q0 -25 -21 -25h-72q-20 0 -20 25zM238 279q0 -67 41.5 -107.5t103.5 -40.5q162 0 287 184v140h-144q-144 0 -216 -39.5t-72 -136.5z" />
<glyph unicode="&#xe4;" horiz-adv-x="983" d="M61 279q0 157 120.5 235t344.5 78h144v26q0 139 -55.5 199t-157.5 60q-59 0 -109.5 -13.5t-75 -29t-48 -34t-27.5 -20.5q-16 -8 -27 6l-59 72q-12 17 4 33q51 48 93 71q109 60 257 60q375 0 375 -410v-475h94q22 0 22 -24v-88q0 -25 -22 -25h-168q-39 0 -57.5 20 t-18.5 66v104h-4q-109 -206 -315 -206q-141 0 -225.5 79t-84.5 216zM238 279q0 -67 41.5 -107.5t103.5 -40.5q162 0 287 184v140h-144q-144 0 -216 -39.5t-72 -136.5zM276 1225q0 38 24.5 65t61.5 27q35 0 61 -27t26 -65t-26 -65t-61 -27q-37 0 -61.5 27t-24.5 65zM578 1225 q0 38 24.5 65t61.5 27q36 0 62 -27t26 -65t-26 -65t-62 -27q-37 0 -61.5 27t-24.5 65z" />
<glyph unicode="&#xe5;" horiz-adv-x="983" d="M61 279q0 157 120.5 235t344.5 78h144v26q0 139 -55.5 199t-157.5 60q-59 0 -109.5 -13.5t-75 -29t-48 -34t-27.5 -20.5q-16 -8 -27 6l-59 72q-12 17 4 33q51 48 93 71q109 60 257 60q375 0 375 -410v-475h94q22 0 22 -24v-88q0 -25 -22 -25h-168q-39 0 -57.5 20 t-18.5 66v104h-4q-109 -206 -315 -206q-141 0 -225.5 79t-84.5 216zM238 279q0 -67 41.5 -107.5t103.5 -40.5q162 0 287 184v140h-144q-144 0 -216 -39.5t-72 -136.5zM358 1294q0 74 42.5 121t107.5 47t106 -46.5t41 -121.5t-41 -122.5t-106 -47.5t-107.5 47.5t-42.5 122.5z M461 1294q0 -67 47 -67t47 67q0 68 -47 68t-47 -68z" />
<glyph unicode="&#xe6;" horiz-adv-x="1564" d="M61 279q0 157 120.5 235t344.5 78h144v26q0 139 -55.5 199t-157.5 60q-59 0 -109.5 -13.5t-75 -29t-48 -34t-27.5 -20.5q-16 -8 -27 6l-59 72q-12 17 4 33q51 48 93 71q109 60 257 60q228 0 317 -154q59 74 141 114t169 40q194 0 295.5 -138.5t101.5 -391.5 q0 -12 -7 -19.5t-18 -7.5h-620q4 -84 29.5 -150t64.5 -105.5t85 -60t97 -20.5q53 0 103 17.5t83.5 44t56 51.5t30.5 45q13 22 32 6l58 -55q18 -18 6 -37q-11 -18 -26.5 -39t-50 -54.5t-74.5 -58.5t-100.5 -44t-127.5 -19q-121 0 -221 61t-158 174q-24 -38 -53 -73t-74 -75 t-106 -64.5t-127 -24.5q-141 0 -225.5 79t-84.5 216zM238 279q0 -67 41.5 -107.5t103.5 -40.5q61 0 112.5 18.5t87.5 51t60.5 67t42.5 74.5q-12 51 -18 113h-142q-144 0 -216 -39.5t-72 -136.5zM848 602h477q-5 123 -63.5 200t-163.5 77q-96 0 -164.5 -72t-85.5 -205z" />
<glyph unicode="&#xe7;" horiz-adv-x="980" d="M74 508q0 120 35.5 219.5t95 162.5t134 97.5t155.5 34.5q58 0 106.5 -14.5t81 -39t53 -48.5t33.5 -50h2l-2 113q0 27 23 27h81q23 0 23 -27v-348q0 -25 -23 -25h-98q-22 0 -22 25v35q-2 74 -68.5 141.5t-167.5 67.5q-104 0 -188 -100.5t-84 -272.5q0 -173 83.5 -275 t194.5 -102q52 0 100.5 18t82.5 45.5t56 52t32 44.5q13 22 32 6l60 -57q19 -16 8 -37q-9 -17 -25 -39t-48.5 -53t-71.5 -56.5t-96 -44.5t-120 -22l-10 -37q9 0 17 -0.5t28.5 -6.5t34.5 -17t25.5 -34.5t11.5 -56.5q0 -70 -43 -111.5t-115 -41.5q-76 0 -135 47q-16 9 -6 32 l20 45q4 11 14.5 12t16.5 -5q45 -27 80 -27q57 0 57 47q0 24 -17 33.5t-56 9.5q-26 0 -34.5 8.5t-2.5 26.5l22 82q-161 27 -263.5 164t-102.5 352z" />
<glyph unicode="&#xe8;" horiz-adv-x="968" d="M74 508q0 120 36 219.5t95.5 162.5t134 97.5t154.5 34.5q194 0 295.5 -138.5t101.5 -391.5q0 -12 -7 -19.5t-18 -7.5h-620q4 -84 29.5 -150t64.5 -105.5t85 -60t97 -20.5q53 0 102.5 18t83 44.5t55.5 51t32 44.5q13 22 32 6l58 -55q18 -18 6 -37q-11 -18 -26.5 -39 t-50 -54.5t-74.5 -58.5t-100.5 -44t-127.5 -19q-188 0 -313 141.5t-125 380.5zM250 602h477q-5 123 -63.5 200t-163.5 77q-96 0 -164.5 -72t-85.5 -205zM274 1487l70 76q6 9 16.5 10t18.5 -6l293 -291q19 -16 4 -39l-53 -59q-17 -20 -37 -4l-307 274q-15 15 -5 39z" />
<glyph unicode="&#xe9;" horiz-adv-x="968" d="M74 508q0 120 36 219.5t95.5 162.5t134 97.5t154.5 34.5q194 0 295.5 -138.5t101.5 -391.5q0 -12 -7 -19.5t-18 -7.5h-620q4 -84 29.5 -150t64.5 -105.5t85 -60t97 -20.5q53 0 102.5 18t83 44.5t55.5 51t32 44.5q13 22 32 6l58 -55q18 -18 6 -37q-11 -18 -26.5 -39 t-50 -54.5t-74.5 -58.5t-100.5 -44t-127.5 -19q-188 0 -313 141.5t-125 380.5zM250 602h477q-5 123 -63.5 200t-163.5 77q-96 0 -164.5 -72t-85.5 -205zM365 1237q-18 22 2 39l292 289q19 19 37 -2l68 -78q11 -21 -4 -39l-307 -275q-20 -14 -35 7z" />
<glyph unicode="&#xea;" horiz-adv-x="968" d="M74 508q0 120 36 219.5t95.5 162.5t134 97.5t154.5 34.5q194 0 295.5 -138.5t101.5 -391.5q0 -12 -7 -19.5t-18 -7.5h-620q4 -84 29.5 -150t64.5 -105.5t85 -60t97 -20.5q53 0 102.5 18t83 44.5t55.5 51t32 44.5q13 22 32 6l58 -55q18 -18 6 -37q-11 -18 -26.5 -39 t-50 -54.5t-74.5 -58.5t-100.5 -44t-127.5 -19q-188 0 -313 141.5t-125 380.5zM201 1237q-15 23 4 39l280 278q6 9 17 9q10 0 18 -11l279 -276q18 -18 4 -39l-53 -59q-14 -21 -35 -4l-213 215l-213 -215q-19 -16 -35 4zM250 602h477q-5 123 -63.5 200t-163.5 77 q-96 0 -164.5 -72t-85.5 -205z" />
<glyph unicode="&#xeb;" horiz-adv-x="968" d="M74 508q0 120 36 219.5t95.5 162.5t134 97.5t154.5 34.5q194 0 295.5 -138.5t101.5 -391.5q0 -12 -7 -19.5t-18 -7.5h-620q4 -84 29.5 -150t64.5 -105.5t85 -60t97 -20.5q53 0 102.5 18t83 44.5t55.5 51t32 44.5q13 22 32 6l58 -55q18 -18 6 -37q-11 -18 -26.5 -39 t-50 -54.5t-74.5 -58.5t-100.5 -44t-127.5 -19q-188 0 -313 141.5t-125 380.5zM250 602h477q-5 123 -63.5 200t-163.5 77q-96 0 -164.5 -72t-85.5 -205zM256 1225q0 38 24.5 65t61.5 27q35 0 60.5 -27t25.5 -65t-25.5 -65t-60.5 -27q-37 0 -61.5 27t-24.5 65zM557 1225 q0 38 24.5 65t61.5 27q36 0 62 -27t26 -65t-26 -65t-62 -27q-37 0 -61.5 27t-24.5 65z" />
<glyph unicode="&#xec;" horiz-adv-x="518" d="M-76 1477l70 75q6 9 16.5 10t18.5 -6l293 -290q19 -16 4 -39l-54 -60q-17 -20 -36 -4l-308 275q-14 14 -4 39zM68 25v88q0 24 22 24h94v733h-94q-22 0 -22 25v88q0 25 22 25h242q22 0 22 -25v-846h88q23 0 23 -24v-88q0 -25 -23 -25h-352q-22 0 -22 25z" />
<glyph unicode="&#xed;" horiz-adv-x="518" d="M68 25v88q0 24 22 24h94v733h-94q-22 0 -22 25v88q0 25 22 25h242q22 0 22 -25v-846h88q23 0 23 -24v-88q0 -25 -23 -25h-352q-22 0 -22 25zM174 1237q-18 22 2 39l293 289q19 19 37 -2l67 -78q11 -21 -4 -39l-307 -275q-20 -14 -35 7z" />
<glyph unicode="&#xee;" horiz-adv-x="518" d="M-41 1237q-15 23 4 39l281 278q6 9 16 9q11 0 19 -11l278 -276q18 -18 4 -39l-53 -59q-14 -21 -35 -4l-213 215l-213 -215q-19 -16 -35 4zM68 25v88q0 24 22 24h94v733h-94q-22 0 -22 25v88q0 25 22 25h242q22 0 22 -25v-846h88q23 0 23 -24v-88q0 -25 -23 -25h-352 q-22 0 -22 25z" />
<glyph unicode="&#xef;" horiz-adv-x="518" d="M29 1225q0 38 24.5 65t61.5 27q35 0 60.5 -27t25.5 -65t-25.5 -65t-60.5 -27q-37 0 -61.5 27t-24.5 65zM68 25v88q0 24 22 24h94v733h-94q-22 0 -22 25v88q0 25 22 25h242q22 0 22 -25v-846h88q23 0 23 -24v-88q0 -25 -23 -25h-352q-22 0 -22 25zM330 1225q0 38 24.5 65 t61.5 27q36 0 62 -27t26 -65t-26 -65t-62 -27q-37 0 -61.5 27t-24.5 65z" />
<glyph unicode="&#xf0;" horiz-adv-x="1089" d="M76 473q0 209 113.5 333t330.5 124q185 0 309 -99q-12 222 -79 347l-78 -95q-12 -15 -31 -2l-49 43q-17 14 -4 31l94 113q-71 65 -170 65q-58 0 -102 -17t-67.5 -45t-34.5 -58t-11 -62q0 -25 -23 -25h-112q-23 0 -23 25q0 147 100 239.5t271 92.5q154 0 272 -97l76 93 q12 15 31 2l49 -43q17 -14 4 -31l-84 -100q152 -206 152 -584q0 -222 -54.5 -386.5t-164.5 -257.5t-265 -93q-208 0 -329 136.5t-121 350.5zM248 467q0 -149 74 -240.5t202 -91.5q151 0 228 143.5t82 415.5q-132 105 -289 105q-141 0 -219 -91.5t-78 -240.5z" />
<glyph unicode="&#xf1;" horiz-adv-x="1073" d="M70 25v88q0 24 20 24h96v733h-96q-20 0 -20 25v88q0 25 20 25h223q23 0 23 -25l-2 -139h6q8 18 17.5 35t33 45t51.5 48t74 35t100 15q141 0 221.5 -96.5t80.5 -259.5v-529h96q22 0 22 -24v-88q0 -25 -22 -25h-189q-39 0 -58 20t-19 66v539q0 120 -44 187t-135 67 q-46 0 -85 -18.5t-61.5 -44t-38.5 -53t-22 -44t-6 -19.5v-563h88q23 0 23 -24v-88q0 -25 -23 -25h-354q-20 0 -20 25zM248 1147q0 108 41 166.5t123 58.5q43 0 80.5 -15t59.5 -33t51 -33.5t56 -16.5q31 0 44.5 24.5t13.5 87.5q0 25 22 25h72q20 0 20 -25q0 -241 -165 -241 q-46 0 -84 15.5t-60 33.5t-49.5 33.5t-54.5 15.5q-30 0 -44 -21t-14 -75q0 -25 -20 -25h-72q-20 0 -20 25z" />
<glyph unicode="&#xf2;" horiz-adv-x="1034" d="M74 508q0 237 125 375.5t317 138.5q193 0 319 -140t126 -374q0 -237 -124 -379.5t-321 -142.5q-195 0 -318.5 142t-123.5 380zM244 1487l69 76q6 9 16.5 10t18.5 -6l293 -291q19 -16 4 -39l-53 -59q-17 -20 -37 -4l-307 274q-14 14 -4 39zM246 506q0 -170 77.5 -273.5 t192.5 -103.5q117 0 194.5 103.5t77.5 273.5q0 169 -79.5 271t-192.5 102q-112 0 -191 -102t-79 -271z" />
<glyph unicode="&#xf3;" horiz-adv-x="1034" d="M74 508q0 237 125 375.5t317 138.5q193 0 319 -140t126 -374q0 -237 -124 -379.5t-321 -142.5q-195 0 -318.5 142t-123.5 380zM246 506q0 -170 77.5 -273.5t192.5 -103.5q117 0 194.5 103.5t77.5 273.5q0 169 -79.5 271t-192.5 102q-112 0 -191 -102t-79 -271zM387 1237 q-18 22 2 39l293 289q19 19 37 -2l67 -78q11 -21 -4 -39l-307 -275q-20 -14 -35 7z" />
<glyph unicode="&#xf4;" horiz-adv-x="1034" d="M74 508q0 237 125 375.5t317 138.5q193 0 319 -140t126 -374q0 -237 -124 -379.5t-321 -142.5q-195 0 -318.5 142t-123.5 380zM227 1237q-15 23 4 39l281 278q6 9 16 9q11 0 19 -11l278 -276q18 -18 4 -39l-53 -59q-14 -21 -35 -4l-213 215l-213 -215q-18 -15 -34 4z M246 506q0 -170 77.5 -273.5t192.5 -103.5q117 0 194.5 103.5t77.5 273.5q0 169 -79.5 271t-192.5 102q-112 0 -191 -102t-79 -271z" />
<glyph unicode="&#xf5;" horiz-adv-x="1034" d="M74 508q0 237 125 375.5t317 138.5q193 0 319 -140t126 -374q0 -237 -124 -379.5t-321 -142.5q-195 0 -318.5 142t-123.5 380zM240 1147q0 108 40.5 166.5t122.5 58.5q43 0 80.5 -15t60 -33t51.5 -33.5t56 -16.5q31 0 44.5 24.5t13.5 87.5q0 25 22 25h72q20 0 20 -25 q0 -241 -166 -241q-46 0 -84 15.5t-59.5 33.5t-49 33.5t-54.5 15.5q-30 0 -44 -21t-14 -75q0 -25 -20 -25h-72q-20 0 -20 25zM246 506q0 -170 77.5 -273.5t192.5 -103.5q117 0 194.5 103.5t77.5 273.5q0 169 -79.5 271t-192.5 102q-112 0 -191 -102t-79 -271z" />
<glyph unicode="&#xf6;" horiz-adv-x="1034" d="M74 508q0 237 125 375.5t317 138.5q193 0 319 -140t126 -374q0 -237 -124 -379.5t-321 -142.5q-195 0 -318.5 142t-123.5 380zM246 506q0 -170 77.5 -273.5t192.5 -103.5q117 0 194.5 103.5t77.5 273.5q0 169 -79.5 271t-192.5 102q-112 0 -191 -102t-79 -271zM285 1225 q0 38 24.5 65t61.5 27q35 0 60.5 -27t25.5 -65t-25.5 -65t-60.5 -27q-37 0 -61.5 27t-24.5 65zM586 1225q0 38 24.5 65t61.5 27q36 0 62 -27t26 -65t-26 -65t-62 -27q-37 0 -61.5 27t-24.5 65z" />
<glyph unicode="&#xf7;" horiz-adv-x="821" d="M106 518v103q0 12 8 20t19 8h555q11 0 18 -8t7 -20v-103q0 -12 -7.5 -20.5t-17.5 -8.5h-555q-11 0 -19 8.5t-8 20.5zM324 295q0 42 26 70t66 28q37 0 63.5 -28.5t26.5 -69.5q0 -40 -26.5 -68t-63.5 -28q-39 0 -65.5 28t-26.5 68zM324 850q0 40 26.5 69t65.5 29 q37 0 63.5 -29t26.5 -69t-26.5 -68t-63.5 -28q-39 0 -65.5 28t-26.5 68z" />
<glyph unicode="&#xf8;" horiz-adv-x="1034" d="M74 508q0 237 125 375.5t317 138.5q93 0 174 -35l15 31q10 26 30 26h49q11 0 15 -7t0 -19l-33 -76q91 -65 143 -176.5t52 -257.5q0 -237 -124 -379.5t-321 -142.5q-80 0 -156 26l-20 -47q-9 -24 -27 -24h-49q-11 0 -16 6.5t0 17.5l37 86q-99 64 -155 182t-56 275z M246 506q0 -201 104 -305l281 645q-58 33 -115 33q-112 0 -191 -102t-79 -271zM420 150q46 -21 96 -21q117 0 194.5 103.5t77.5 273.5q0 179 -90 282z" />
<glyph unicode="&#xf9;" horiz-adv-x="1052" d="M37 895v88q0 25 22 25h189q39 0 58.5 -20t19.5 -66v-539q0 -120 44.5 -187t135.5 -67q45 0 84 18t61.5 43t39 52.5t22.5 44.5t6 20v563h-90q-23 0 -23 25v88q0 25 23 25h235q23 0 23 -25v-846h94q25 0 25 -24v-88q0 -25 -25 -25h-166q-41 0 -59.5 20t-18.5 66v76h-6 q-67 -176 -268 -176q-141 0 -224 97t-83 259v528h-97q-22 0 -22 25zM227 1487l70 76q6 9 16.5 10t18.5 -6l293 -291q19 -16 4 -39l-54 -59q-17 -20 -36 -4l-308 274q-15 14 -4 39z" />
<glyph unicode="&#xfa;" horiz-adv-x="1052" d="M37 895v88q0 25 22 25h189q39 0 58.5 -20t19.5 -66v-539q0 -120 44.5 -187t135.5 -67q45 0 84 18t61.5 43t39 52.5t22.5 44.5t6 20v563h-90q-23 0 -23 25v88q0 25 23 25h235q23 0 23 -25v-846h94q25 0 25 -24v-88q0 -25 -25 -25h-166q-41 0 -59.5 20t-18.5 66v76h-6 q-67 -176 -268 -176q-141 0 -224 97t-83 259v528h-97q-22 0 -22 25zM307 1237q-18 22 2 39l293 289q19 19 37 -2l68 -78q10 -21 -5 -39l-307 -275q-20 -14 -35 7z" />
<glyph unicode="&#xfb;" horiz-adv-x="1052" d="M37 895v88q0 25 22 25h189q39 0 58.5 -20t19.5 -66v-539q0 -120 44.5 -187t135.5 -67q45 0 84 18t61.5 43t39 52.5t22.5 44.5t6 20v563h-90q-23 0 -23 25v88q0 25 23 25h235q23 0 23 -25v-846h94q25 0 25 -24v-88q0 -25 -25 -25h-166q-41 0 -59.5 20t-18.5 66v76h-6 q-67 -176 -268 -176q-141 0 -224 97t-83 259v528h-97q-22 0 -22 25zM195 1237q-15 23 4 39l280 278q6 9 17 9q10 0 18 -11l279 -276q18 -18 4 -39l-54 -59q-14 -21 -34 -4l-213 215l-213 -215q-19 -16 -35 4z" />
<glyph unicode="&#xfc;" horiz-adv-x="1052" d="M37 895v88q0 25 22 25h189q39 0 58.5 -20t19.5 -66v-539q0 -120 44.5 -187t135.5 -67q45 0 84 18t61.5 43t39 52.5t22.5 44.5t6 20v563h-90q-23 0 -23 25v88q0 25 23 25h235q23 0 23 -25v-846h94q25 0 25 -24v-88q0 -25 -25 -25h-166q-41 0 -59.5 20t-18.5 66v76h-6 q-67 -176 -268 -176q-141 0 -224 97t-83 259v528h-97q-22 0 -22 25zM262 1225q0 38 24.5 65t61.5 27q35 0 60.5 -27t25.5 -65t-25.5 -65t-60.5 -27q-37 0 -61.5 27t-24.5 65zM563 1225q0 38 24.5 65t61.5 27q36 0 62 -27t26 -65t-26 -65t-62 -27q-37 0 -61.5 27t-24.5 65z " />
<glyph unicode="&#xfd;" horiz-adv-x="1019" d="M10 895v88q0 25 23 25h334q24 0 24 -25v-88q0 -25 -24 -25h-66l209 -694h2l199 694h-76q-23 0 -23 25v88q0 25 23 25h346q23 0 23 -25v-88q0 -25 -23 -25h-96l-305 -1001q-24 -74 -43 -121t-45.5 -94.5t-55.5 -73.5t-69 -42.5t-91 -16.5q-23 0 -45 3.5t-40 10t-32.5 13 t-28 15.5t-21 15t-17 14t-10.5 9q-17 20 -6 37l55 65q16 16 33 2q1 -1 6.5 -6t10 -8.5t13.5 -9t18 -9t21.5 -6t26.5 -2.5q61 0 95.5 46.5t66.5 160.5l43 152h-29q-20 0 -31 11.5t-20 39.5l-258 796h-94q-9 0 -16 7t-7 18zM367 1237q-18 22 2 39l293 289q19 19 36 -2l68 -78 q11 -21 -4 -39l-307 -275q-20 -14 -35 7z" />
<glyph unicode="&#xfe;" horiz-adv-x="1048" d="M20 -350q0 26 23 26h96v1655h-90q-24 0 -24 25v88q0 24 24 24h238q22 0 22 -24v-610q36 86 105 137t166 51q175 0 285 -141t110 -375q0 -230 -108 -375t-287 -145q-110 0 -180.5 58.5t-96.5 141.5h-4q4 -44 4 -73v-437h117q22 0 22 -26v-86q0 -27 -22 -27h-377 q-23 0 -23 27v86zM301 504q0 -170 72 -272.5t178 -102.5q112 0 184 103t72 270q0 172 -72 274.5t-184 102.5q-107 0 -178.5 -100.5t-71.5 -274.5z" />
<glyph unicode="&#xff;" horiz-adv-x="1019" d="M10 895v88q0 25 23 25h334q24 0 24 -25v-88q0 -25 -24 -25h-66l209 -694h2l199 694h-76q-23 0 -23 25v88q0 25 23 25h346q23 0 23 -25v-88q0 -25 -23 -25h-96l-305 -1001q-24 -74 -43 -121t-45.5 -94.5t-55.5 -73.5t-69 -42.5t-91 -16.5q-23 0 -45 3.5t-40 10t-32.5 13 t-28 15.5t-21 15t-17 14t-10.5 9q-17 20 -6 37l55 65q16 16 33 2q1 -1 6.5 -6t10 -8.5t13.5 -9t18 -9t21.5 -6t26.5 -2.5q61 0 95.5 46.5t66.5 160.5l43 152h-29q-20 0 -31 11.5t-20 39.5l-258 796h-94q-9 0 -16 7t-7 18zM281 1225q0 38 24.5 65t61.5 27q35 0 60.5 -27 t25.5 -65t-25.5 -65t-60.5 -27q-37 0 -61.5 27t-24.5 65zM582 1225q0 38 24.5 65t61.5 27q36 0 62 -27t26 -65t-26 -65t-62 -27q-37 0 -61.5 27t-24.5 65z" />
<glyph unicode="&#x152;" horiz-adv-x="1636" d="M84 743q0 168 51 307.5t136 229.5t194.5 139.5t228.5 50.5h819q23 0 23 -24v-328q0 -24 -23 -24h-116q-25 0 -25 24v203h-500v-512h418q23 0 23 -25v-100q0 -25 -23 -25h-418v-509h500v200q0 25 23 25h118q23 0 23 -25v-325q0 -25 -23 -25h-817q-128 0 -240.5 54 t-194.5 150t-129.5 235.5t-47.5 303.5zM272 737q0 -138 35.5 -249t95 -180.5t134.5 -106.5t157 -39v1149q-63 -2 -122.5 -24.5t-114.5 -69t-95.5 -112.5t-65 -161t-24.5 -207z" />
<glyph unicode="&#x153;" horiz-adv-x="1685" d="M74 508q0 237 125 375.5t317 138.5q113 0 206 -55.5t152 -157.5q59 102 148 157.5t188 55.5q196 0 297 -138t101 -392q0 -27 -23 -27h-620q4 -84 29 -150t64 -106t85.5 -60t97.5 -20q70 0 132 31t94 65t44 62q13 23 33 6l60 -55q16 -19 4 -37q-10 -22 -35.5 -53.5 t-70.5 -70t-117.5 -65t-155.5 -26.5q-109 0 -201.5 56.5t-150.5 160.5q-59 -103 -152.5 -160t-208.5 -57q-195 0 -318.5 142t-123.5 380zM246 506q0 -170 77.5 -273.5t192.5 -103.5q117 0 194.5 103.5t77.5 273.5q0 169 -79.5 271t-192.5 102q-112 0 -191 -102t-79 -271z M969 602h475q-5 123 -63 200t-164 77q-96 0 -165 -72t-83 -205z" />
<glyph unicode="&#x178;" horiz-adv-x="1163" d="M-14 1346v100q0 24 22 24h428q25 0 25 -24v-100q0 -25 -25 -25h-108l256 -576h8l252 576h-117q-20 0 -20 25v100q0 24 20 24h428q25 0 25 -24v-100q0 -25 -25 -25h-119l-368 -733v-438h135q22 0 22 -25v-100q0 -25 -22 -25h-445q-22 0 -22 25v100q0 25 22 25h136v438 l-367 733h-119q-22 0 -22 25zM336 1688q0 38 24.5 65t61.5 27q35 0 60.5 -27t25.5 -65t-25.5 -65.5t-60.5 -27.5q-36 0 -61 27t-25 66zM637 1688q0 38 24.5 65t61.5 27q36 0 62 -27t26 -65t-26.5 -65.5t-61.5 -27.5q-36 0 -61 27t-25 66z" />
<glyph unicode="&#x2c6;" horiz-adv-x="731" d="M63 1237q-15 22 5 39l280 278q6 9 17 9q10 0 18 -11l279 -276q18 -18 4 -39l-54 -59q-14 -21 -34 -4l-213 215l-213 -215q-19 -16 -35 4z" />
<glyph unicode="&#x2dc;" horiz-adv-x="694" d="M55 1147q0 108 41 166.5t123 58.5q43 0 80.5 -15t60 -33t51.5 -33.5t56 -16.5q31 0 44 24.5t13 87.5q0 25 23 25h71q21 0 21 -25q0 -241 -166 -241q-46 0 -84 15.5t-60 33.5t-49.5 33.5t-54.5 15.5q-29 0 -43 -21t-14 -75q0 -25 -21 -25h-71q-21 0 -21 25z" />
<glyph unicode="&#x2000;" horiz-adv-x="1018" />
<glyph unicode="&#x2001;" horiz-adv-x="2036" />
<glyph unicode="&#x2002;" horiz-adv-x="1018" />
<glyph unicode="&#x2003;" horiz-adv-x="2036" />
<glyph unicode="&#x2004;" horiz-adv-x="678" />
<glyph unicode="&#x2005;" horiz-adv-x="509" />
<glyph unicode="&#x2006;" horiz-adv-x="339" />
<glyph unicode="&#x2007;" horiz-adv-x="339" />
<glyph unicode="&#x2008;" horiz-adv-x="254" />
<glyph unicode="&#x2009;" horiz-adv-x="407" />
<glyph unicode="&#x200a;" horiz-adv-x="113" />
<glyph unicode="&#x2010;" horiz-adv-x="843" d="M119 481v105q0 12 7.5 19t18.5 7h555q11 0 18 -7t7 -19v-105q0 -12 -7 -19t-18 -7h-555q-11 0 -18.5 7t-7.5 19z" />
<glyph unicode="&#x2011;" horiz-adv-x="843" d="M119 481v105q0 12 7.5 19t18.5 7h555q11 0 18 -7t7 -19v-105q0 -12 -7 -19t-18 -7h-555q-11 0 -18.5 7t-7.5 19z" />
<glyph unicode="&#x2012;" horiz-adv-x="843" d="M119 481v105q0 12 7.5 19t18.5 7h555q11 0 18 -7t7 -19v-105q0 -12 -7 -19t-18 -7h-555q-11 0 -18.5 7t-7.5 19z" />
<glyph unicode="&#x2013;" horiz-adv-x="1091" d="M119 481v105q0 12 7.5 19t18.5 7h803q11 0 18 -7t7 -19v-105q0 -12 -7 -19t-18 -7h-803q-11 0 -18.5 7t-7.5 19z" />
<glyph unicode="&#x2014;" horiz-adv-x="1662" d="M119 481v105q0 12 7.5 19t18.5 7h1375q24 0 24 -26v-105q0 -26 -24 -26h-1375q-11 0 -18.5 7t-7.5 19z" />
<glyph unicode="&#x2018;" horiz-adv-x="362" d="M84 1366q0 117 39.5 171t105.5 54q15 0 15 -10v-39q0 -12 -15 -12q-28 0 -49.5 -27.5t-21.5 -81.5l4 -24q10 10 33 10q36 0 61 -26t25 -68q0 -41 -27 -68.5t-66 -27.5q-48 0 -76 39t-28 110z" />
<glyph unicode="&#x2019;" horiz-adv-x="370" d="M90 1425q0 41 26.5 69t63.5 28q50 0 77.5 -39t27.5 -111q0 -117 -39.5 -171t-106.5 -54q-12 0 -12 10v39q0 12 12 12q28 0 50 27.5t22 81.5l-4 24q-8 -10 -33 -10q-35 0 -59.5 26t-24.5 68z" />
<glyph unicode="&#x201a;" horiz-adv-x="413" d="M111 80q0 41 26 68.5t64 27.5q50 0 78 -39t28 -110q0 -117 -40.5 -171.5t-108.5 -54.5q-11 0 -11 11v38q0 6 3.5 9.5t7.5 3.5q29 0 51 27t22 81l-4 25q-7 -10 -32 -10q-35 0 -59.5 26t-24.5 68z" />
<glyph unicode="&#x201c;" horiz-adv-x="657" d="M84 1366q0 117 39.5 171t105.5 54q15 0 15 -10v-39q0 -12 -15 -12q-28 0 -49.5 -27.5t-21.5 -81.5l4 -24q10 10 33 10q36 0 61 -26t25 -68q0 -41 -27 -68.5t-66 -27.5q-48 0 -76 39t-28 110zM379 1366q0 117 39.5 171t107.5 54q13 0 13 -10v-39q0 -12 -13 -12 q-28 0 -50.5 -27.5t-22.5 -81.5l4 -24q9 10 32 10q35 0 59.5 -26t24.5 -68q0 -41 -26 -68.5t-64 -27.5q-48 0 -76 39t-28 110z" />
<glyph unicode="&#x201d;" horiz-adv-x="665" d="M90 1425q0 41 26.5 69t63.5 28q50 0 77.5 -39t27.5 -111q0 -117 -39.5 -171t-106.5 -54q-12 0 -12 10v39q0 12 12 12q28 0 50 27.5t22 81.5l-4 24q-8 -10 -33 -10q-35 0 -59.5 26t-24.5 68zM385 1425q0 41 26 69t66 28q48 0 76.5 -39.5t28.5 -110.5q0 -116 -40.5 -170.5 t-107.5 -54.5q-12 0 -12 10v39q0 12 12 12q28 0 50 27.5t22 81.5l-2 24q-10 -10 -33 -10q-36 0 -61 26t-25 68z" />
<glyph unicode="&#x201e;" horiz-adv-x="690" d="M111 80q0 41 26 68.5t64 27.5q50 0 78 -39t28 -110q0 -117 -40.5 -171.5t-108.5 -54.5q-11 0 -11 11v38q0 6 3.5 9.5t7.5 3.5q29 0 51 27t22 81l-4 25q-7 -10 -32 -10q-35 0 -59.5 26t-24.5 68zM387 80q0 41 26.5 68.5t63.5 27.5q50 0 78.5 -39t28.5 -110 q0 -117 -40 -171.5t-108 -54.5q-12 0 -12 11v38q0 13 12 13q28 0 50 27t22 81l-2 25q-10 -10 -33 -10q-36 0 -61 26t-25 68z" />
<glyph unicode="&#x2022;" horiz-adv-x="632" d="M152 686q0 90 43 144.5t120 54.5q75 0 120.5 -55.5t45.5 -143.5q0 -90 -45.5 -143.5t-120.5 -53.5q-77 0 -120 52.5t-43 144.5z" />
<glyph unicode="&#x2026;" horiz-adv-x="858" d="M109 82q0 40 26.5 68t63.5 28q38 0 65 -28t27 -68q0 -41 -26.5 -68.5t-65.5 -27.5q-37 0 -63.5 27.5t-26.5 68.5zM340 82q0 40 26 68t64 28t64 -28t26 -68q0 -41 -26 -68.5t-64 -27.5t-64 27.5t-26 68.5zM569 82q0 40 26 68t64 28q37 0 64 -28t27 -68q0 -41 -27 -68.5 t-64 -27.5q-38 0 -64 27.5t-26 68.5z" />
<glyph unicode="&#x202f;" horiz-adv-x="407" />
<glyph unicode="&#x205f;" horiz-adv-x="509" />
<glyph unicode="&#x20ac;" horiz-adv-x="1239" d="M70 530v76q0 25 22 25h111q-4 66 -4 100q0 28 4 90h-111q-22 0 -22 25v74q0 26 22 26h129q52 241 209 389t375 148q120 0 209.5 -39t132.5 -80q18 -15 4 -35l-76 -88q-14 -21 -31 -4q-82 82 -235 82q-138 0 -245 -104t-152 -269h467q22 0 22 -26v-74q0 -25 -22 -25h-490 q-4 -29 -4 -86q0 -55 6 -104h383q23 0 23 -25v-76q0 -24 -23 -24h-356q47 -159 151.5 -256.5t239.5 -97.5q156 0 235 79q17 17 31 -4l76 -88q14 -22 -4 -37q-42 -40 -131.5 -78t-210.5 -38q-213 0 -369.5 143t-212.5 377h-131q-22 0 -22 24z" />
<glyph unicode="&#x2122;" horiz-adv-x="1916" d="M102 1249v207q0 6 5.5 10t11.5 4h665q17 0 17 -14v-207q0 -16 -17 -16h-79q-15 0 -15 16v111h-172v-660h78q5 0 9.5 -4.5t4.5 -11.5v-78q0 -7 -4.5 -11.5t-9.5 -4.5h-285q-14 0 -14 16v78q0 16 14 16h80v660h-178v-111q0 -7 -4.5 -11.5t-9.5 -4.5h-80q-6 0 -11.5 4.5 t-5.5 11.5zM899 604v82q0 14 12 14h76v660h-76q-12 0 -12 14v82q0 14 12 14h193q38 0 53 -40l143 -439q9 -24 20.5 -60.5t18.5 -61.5l7 -25h2q24 90 47 147l141 439q15 40 55 40h193q12 0 12 -14v-82q0 -14 -12 -14h-76v-660h76q12 0 12 -14v-82q0 -14 -12 -14h-264 q-5 0 -9 4t-4 10v82q0 14 13 14h63v588h-2l-182 -573q-14 -39 -53 -39q-38 0 -50 39l-184 573h-2v-588h64q14 0 14 -14v-82q0 -14 -14 -14h-263q-12 0 -12 14z" />
<glyph unicode="&#xe000;" horiz-adv-x="1003" d="M0 0v1004h1004v-1004h-1004z" />
</font>
</defs>
</svg>
